<svg xmlns="http://www.w3.org/2000/svg" xmlns:xlink="http://www.w3.org/1999/xlink" width="250" zoomAndPan="magnify" viewBox="0 0 187.5 187.499992" height="250" preserveAspectRatio="xMidYMid meet" version="1.0"><defs><clipPath id="442085db29"><path d="M 9 27.417969 L 178.957031 27.417969 L 178.957031 159 L 9 159 Z M 9 27.417969 " clip-rule="nonzero"/></clipPath></defs><g clip-path="url(#442085db29)"><path fill="#ffffff" d="M 177.421875 43.605469 C 177.167969 43.355469 176.878906 43.160156 176.550781 43.027344 C 176.222656 42.890625 175.878906 42.824219 175.523438 42.824219 C 175.167969 42.824219 174.828125 42.890625 174.5 43.027344 C 174.171875 43.160156 173.878906 43.355469 173.628906 43.605469 L 171.257812 46.078125 C 170.046875 47.328125 169.117188 48.757812 168.464844 50.367188 C 167.8125 51.976562 167.484375 53.652344 167.480469 55.390625 L 167.394531 86.34375 C 167.394531 87.535156 167.054688 88.625 166.378906 89.609375 L 147.253906 117.496094 C 146.972656 117.929688 146.609375 118.28125 146.167969 118.546875 C 145.726562 118.816406 145.246094 118.972656 144.730469 119.023438 L 144.375 119.023438 C 143.699219 119.019531 143.085938 118.828125 142.53125 118.445312 C 142.34375 118.324219 142.175781 118.183594 142.023438 118.023438 C 141.75 117.75 141.535156 117.441406 141.367188 117.09375 C 141.203125 116.75 141.097656 116.382812 141.058594 116.003906 C 141.015625 115.621094 141.039062 115.242188 141.125 114.871094 C 141.210938 114.496094 141.359375 114.148438 141.5625 113.824219 L 159.164062 86.496094 C 159.164062 86.496094 159.164062 86.324219 159.28125 86.242188 L 159.398438 85.988281 L 159.5 85.613281 C 159.511719 85.523438 159.511719 85.433594 159.5 85.34375 C 159.507812 85.246094 159.507812 85.152344 159.5 85.054688 L 159.5 63.738281 C 159.5 63.378906 159.433594 63.035156 159.296875 62.707031 C 159.160156 62.378906 158.964844 62.085938 158.710938 61.832031 C 158.460938 61.582031 158.167969 61.386719 157.839844 61.25 C 157.507812 61.113281 157.164062 61.046875 156.808594 61.046875 C 156.449219 61.046875 156.109375 61.113281 155.777344 61.25 C 155.449219 61.386719 155.15625 61.582031 154.902344 61.832031 C 154.652344 62.085938 154.457031 62.378906 154.320312 62.707031 C 154.183594 63.035156 154.113281 63.378906 154.113281 63.738281 L 154.113281 82.042969 C 152.871094 81.761719 151.695312 81.300781 150.589844 80.664062 C 149.484375 80.023438 148.5 79.238281 147.636719 78.300781 C 146.769531 77.363281 146.066406 76.316406 145.515625 75.164062 C 144.96875 74.011719 144.605469 72.804688 144.425781 71.542969 C 142.851562 60.199219 144.003906 44.199219 158.484375 32.597656 C 158.78125 32.382812 159.023438 32.117188 159.210938 31.804688 C 159.398438 31.488281 159.515625 31.148438 159.5625 30.785156 C 159.613281 30.421875 159.585938 30.066406 159.488281 29.710938 C 159.386719 29.359375 159.222656 29.039062 158.992188 28.753906 C 158.769531 28.476562 158.5 28.253906 158.1875 28.085938 C 157.875 27.914062 157.542969 27.8125 157.1875 27.773438 C 156.835938 27.734375 156.488281 27.765625 156.144531 27.863281 C 155.804688 27.964844 155.492188 28.125 155.214844 28.347656 C 138.753906 41.589844 137.414062 59.554688 139.191406 72.371094 C 139.492188 74.519531 140.15625 76.542969 141.191406 78.449219 C 142.226562 80.351562 143.566406 82.011719 145.207031 83.429688 L 130.894531 100.566406 C 130.328125 101.136719 129.847656 101.773438 129.457031 102.476562 C 129.066406 103.179688 128.78125 103.921875 128.59375 104.707031 C 128.410156 105.488281 128.332031 106.28125 128.367188 107.085938 C 128.402344 107.890625 128.542969 108.671875 128.792969 109.4375 C 129.042969 110.203125 129.394531 110.917969 129.84375 111.585938 C 130.289062 112.253906 130.820312 112.847656 131.433594 113.371094 C 132.046875 113.890625 132.71875 114.320312 133.449219 114.65625 C 134.179688 114.992188 134.941406 115.222656 135.738281 115.347656 C 135.738281 115.601562 135.738281 115.871094 135.738281 116.125 C 134.296875 119.386719 132.636719 122.53125 130.75 125.558594 C 128.867188 128.582031 126.777344 131.460938 124.484375 134.191406 C 122.191406 136.921875 119.71875 139.476562 117.0625 141.855469 C 114.410156 144.234375 111.601562 146.417969 108.636719 148.398438 C 107.53125 149.140625 106.382812 149.792969 105.179688 150.363281 C 103.980469 150.933594 102.746094 151.410156 101.472656 151.796875 C 100.203125 152.183594 98.910156 152.472656 97.59375 152.671875 C 96.28125 152.867188 94.957031 152.964844 93.628906 152.964844 C 92.300781 152.964844 90.980469 152.867188 89.664062 152.671875 C 88.351562 152.472656 87.058594 152.183594 85.785156 151.796875 C 84.515625 151.410156 83.28125 150.933594 82.078125 150.363281 C 80.878906 149.792969 79.726562 149.140625 78.621094 148.398438 C 75.660156 146.410156 72.847656 144.222656 70.195312 141.835938 C 67.539062 139.453125 65.066406 136.890625 62.773438 134.15625 C 60.480469 131.417969 58.390625 128.535156 56.507812 125.503906 C 54.621094 122.472656 52.960938 119.324219 51.523438 116.058594 C 51.539062 115.828125 51.539062 115.59375 51.523438 115.363281 C 52.816406 115.171875 54.003906 114.707031 55.089844 113.976562 C 56.171875 113.242188 57.042969 112.3125 57.703125 111.183594 C 57.957031 110.753906 58.167969 110.3125 58.34375 109.847656 C 58.519531 109.386719 58.65625 108.910156 58.75 108.425781 C 58.84375 107.941406 58.898438 107.449219 58.910156 106.957031 C 58.921875 106.460938 58.894531 105.96875 58.824219 105.480469 C 58.753906 104.988281 58.640625 104.507812 58.488281 104.039062 C 58.335938 103.566406 58.144531 103.113281 57.914062 102.675781 C 57.6875 102.234375 57.421875 101.820312 57.121094 101.425781 C 56.820312 101.03125 56.492188 100.667969 56.128906 100.328125 L 42.257812 83.34375 C 43.898438 81.929688 45.238281 80.269531 46.277344 78.363281 C 47.316406 76.460938 47.984375 74.433594 48.285156 72.289062 C 50.066406 59.554688 48.726562 41.589844 32.265625 28.347656 C 31.773438 27.945312 31.207031 27.746094 30.570312 27.757812 C 30.003906 27.757812 29.488281 27.925781 29.023438 28.253906 C 28.5625 28.582031 28.234375 29.011719 28.042969 29.546875 C 27.855469 30.082031 27.835938 30.625 27.988281 31.171875 C 28.140625 31.71875 28.4375 32.171875 28.875 32.53125 C 43.375 44.199219 44.527344 60.179688 42.953125 71.476562 C 42.863281 72.105469 42.726562 72.722656 42.542969 73.328125 C 42.359375 73.9375 42.128906 74.527344 41.859375 75.101562 C 41.585938 75.671875 41.269531 76.222656 40.914062 76.75 C 40.558594 77.273438 40.167969 77.769531 39.734375 78.238281 C 39.304688 78.703125 38.839844 79.132812 38.34375 79.53125 C 37.847656 79.925781 37.324219 80.28125 36.773438 80.597656 C 36.226562 80.914062 35.652344 81.1875 35.0625 81.417969 C 34.472656 81.648438 33.867188 81.835938 33.246094 81.972656 L 33.246094 63.738281 C 33.21875 63.398438 33.132812 63.078125 32.984375 62.773438 C 32.835938 62.46875 32.636719 62.203125 32.390625 61.972656 C 32.140625 61.742188 31.859375 61.566406 31.542969 61.445312 C 31.226562 61.320312 30.898438 61.257812 30.5625 61.257812 C 30.222656 61.257812 29.894531 61.320312 29.582031 61.445312 C 29.265625 61.566406 28.984375 61.742188 28.734375 61.972656 C 28.484375 62.203125 28.285156 62.46875 28.140625 62.773438 C 27.992188 63.078125 27.902344 63.398438 27.875 63.738281 L 27.875 85.054688 C 27.871094 85.164062 27.871094 85.269531 27.875 85.375 C 27.867188 85.449219 27.867188 85.523438 27.875 85.597656 C 27.894531 85.730469 27.925781 85.863281 27.976562 85.988281 L 28.097656 86.222656 C 28.128906 86.316406 28.167969 86.40625 28.214844 86.496094 L 38.617188 102.699219 L 45.746094 113.824219 C 45.90625 114.070312 46.03125 114.335938 46.121094 114.617188 C 46.214844 114.898438 46.265625 115.1875 46.28125 115.484375 C 46.296875 115.777344 46.273438 116.070312 46.214844 116.359375 C 46.152344 116.648438 46.054688 116.925781 45.921875 117.1875 C 45.789062 117.453125 45.621094 117.695312 45.425781 117.914062 C 45.226562 118.136719 45.007812 118.328125 44.757812 118.488281 C 44.511719 118.652344 44.25 118.777344 43.96875 118.871094 C 43.6875 118.964844 43.398438 119.019531 43.105469 119.039062 L 42.75 119.039062 C 42.230469 118.988281 41.753906 118.828125 41.308594 118.558594 C 40.867188 118.289062 40.503906 117.933594 40.222656 117.496094 L 21.085938 89.609375 C 20.40625 88.625 20.070312 87.535156 20.070312 86.34375 L 20.070312 55.457031 C 20.066406 53.71875 19.734375 52.046875 19.082031 50.433594 C 18.429688 48.824219 17.5 47.394531 16.292969 46.144531 L 13.851562 43.671875 C 13.324219 43.128906 12.679688 42.859375 11.921875 42.859375 C 11.195312 42.863281 10.570312 43.109375 10.042969 43.605469 C 9.789062 43.859375 9.597656 44.148438 9.460938 44.480469 C 9.324219 44.808594 9.257812 45.152344 9.257812 45.507812 C 9.257812 45.867188 9.324219 46.210938 9.460938 46.539062 C 9.597656 46.871094 9.789062 47.160156 10.042969 47.414062 L 12.414062 49.871094 C 13.140625 50.621094 13.703125 51.480469 14.09375 52.449219 C 14.488281 53.421875 14.683594 54.429688 14.683594 55.472656 L 14.683594 86.34375 C 14.71875 88.417969 15.28125 90.335938 16.375 92.097656 L 22.320312 119.597656 C 22.488281 120.351562 22.765625 121.0625 23.15625 121.726562 C 23.542969 122.394531 24.027344 122.984375 24.601562 123.5 C 25.175781 124.015625 25.816406 124.429688 26.519531 124.746094 C 27.222656 125.058594 27.960938 125.257812 28.726562 125.34375 C 29.496094 125.429688 30.257812 125.390625 31.011719 125.238281 C 31.769531 125.082031 32.484375 124.816406 33.15625 124.4375 C 33.828125 124.058594 34.425781 123.585938 34.953125 123.019531 C 35.476562 122.453125 35.902344 121.820312 36.226562 121.121094 C 36.964844 122.042969 37.851562 122.789062 38.886719 123.351562 C 39.925781 123.914062 41.03125 124.253906 42.207031 124.371094 L 43.019531 124.371094 C 44.066406 124.367188 45.078125 124.179688 46.058594 123.808594 C 47.039062 123.441406 47.921875 122.910156 48.710938 122.222656 C 51.824219 128.417969 55.675781 134.117188 60.269531 139.3125 C 64.863281 144.511719 70.042969 149.035156 75.8125 152.886719 C 77.132812 153.777344 78.511719 154.566406 79.953125 155.253906 C 81.390625 155.9375 82.875 156.515625 84.398438 156.980469 C 85.921875 157.445312 87.472656 157.796875 89.050781 158.035156 C 90.628906 158.269531 92.214844 158.386719 93.808594 158.386719 C 95.402344 158.386719 96.988281 158.269531 98.566406 158.035156 C 100.140625 157.796875 101.691406 157.445312 103.21875 156.980469 C 104.742188 156.515625 106.222656 155.9375 107.664062 155.253906 C 109.101562 154.566406 110.484375 153.777344 111.804688 152.886719 C 117.570312 149.035156 122.75 144.515625 127.34375 139.320312 C 131.9375 134.125 135.789062 128.433594 138.90625 122.238281 C 139.691406 122.921875 140.570312 123.445312 141.542969 123.8125 C 142.515625 124.179688 143.523438 124.367188 144.5625 124.371094 L 145.375 124.371094 C 146.546875 124.257812 147.652344 123.917969 148.6875 123.351562 C 149.722656 122.789062 150.605469 122.046875 151.335938 121.121094 C 151.660156 121.824219 152.085938 122.460938 152.609375 123.03125 C 153.132812 123.597656 153.734375 124.074219 154.40625 124.457031 C 155.082031 124.835938 155.796875 125.105469 156.554688 125.261719 C 157.3125 125.417969 158.078125 125.453125 158.847656 125.367188 C 159.617188 125.285156 160.355469 125.085938 161.0625 124.769531 C 161.769531 124.453125 162.410156 124.035156 162.984375 123.515625 C 163.558594 123 164.042969 122.40625 164.429688 121.734375 C 164.820312 121.066406 165.097656 120.355469 165.261719 119.597656 L 171.136719 92.097656 C 172.230469 90.339844 172.792969 88.425781 172.832031 86.359375 L 172.832031 55.472656 C 172.832031 54.429688 173.027344 53.421875 173.417969 52.453125 C 173.804688 51.484375 174.363281 50.625 175.085938 49.871094 L 177.472656 47.414062 C 177.71875 47.15625 177.910156 46.863281 178.039062 46.53125 C 178.171875 46.199219 178.234375 45.855469 178.230469 45.5 C 178.226562 45.140625 178.152344 44.800781 178.011719 44.472656 C 177.875 44.144531 177.675781 43.855469 177.421875 43.605469 Z M 134.804688 104.308594 L 149.8125 86.222656 C 150.644531 86.597656 151.503906 86.902344 152.386719 87.136719 L 146.289062 96.636719 L 137.652344 110.082031 C 137.453125 110.097656 137.257812 110.097656 137.058594 110.082031 C 136.464844 110.074219 135.914062 109.921875 135.40625 109.621094 C 134.898438 109.316406 134.5 108.90625 134.214844 108.386719 C 134.03125 108.0625 133.90625 107.71875 133.839844 107.351562 C 133.769531 106.984375 133.761719 106.617188 133.816406 106.246094 C 133.871094 105.878906 133.980469 105.527344 134.152344 105.195312 C 134.320312 104.863281 134.539062 104.566406 134.804688 104.308594 Z M 37.683594 86.222656 L 52.4375 104.054688 C 52.753906 104.316406 53.019531 104.628906 53.226562 104.984375 C 53.4375 105.339844 53.578125 105.722656 53.65625 106.128906 C 53.734375 106.535156 53.742188 106.941406 53.675781 107.351562 C 53.613281 107.757812 53.480469 108.144531 53.285156 108.507812 C 52.996094 109.023438 52.597656 109.433594 52.089844 109.738281 C 51.582031 110.039062 51.03125 110.195312 50.4375 110.199219 C 50.242188 110.21875 50.042969 110.21875 49.84375 110.199219 L 42.085938 98.007812 L 35.109375 87.136719 C 35.992188 86.902344 36.851562 86.597656 37.683594 86.222656 Z M 27.519531 118.394531 L 24.472656 103.953125 L 31.621094 114.382812 L 31.621094 117.988281 C 31.628906 118.242188 31.589844 118.488281 31.503906 118.726562 C 31.417969 118.96875 31.289062 119.183594 31.125 119.375 C 30.957031 119.566406 30.761719 119.71875 30.535156 119.835938 C 30.308594 119.953125 30.070312 120.027344 29.816406 120.054688 C 29.566406 120.078125 29.316406 120.058594 29.070312 119.992188 C 28.824219 119.925781 28.601562 119.816406 28.398438 119.664062 C 28.195312 119.511719 28.027344 119.328125 27.890625 119.109375 C 27.757812 118.894531 27.667969 118.660156 27.621094 118.410156 Z M 163.023438 103.933594 L 159.976562 118.445312 C 159.929688 118.695312 159.839844 118.929688 159.707031 119.144531 C 159.574219 119.359375 159.402344 119.542969 159.199219 119.695312 C 158.996094 119.847656 158.773438 119.957031 158.527344 120.027344 C 158.28125 120.09375 158.035156 120.113281 157.78125 120.085938 C 157.527344 120.058594 157.289062 119.988281 157.0625 119.871094 C 156.839844 119.753906 156.640625 119.597656 156.476562 119.40625 C 156.308594 119.214844 156.179688 119 156.09375 118.761719 C 156.011719 118.523438 155.972656 118.277344 155.976562 118.023438 L 155.976562 114.414062 Z M 163.023438 103.933594 " fill-opacity="1" fill-rule="nonzero"/></g><path fill="#ffffff" d="M 93.75 137.917969 C 102.472656 137.917969 107.554688 134.125 112.378906 129.890625 C 112.8125 129.519531 113.097656 129.058594 113.234375 128.503906 C 113.371094 127.949219 113.335938 127.410156 113.125 126.878906 C 112.960938 126.382812 112.667969 125.984375 112.246094 125.671875 C 111.828125 125.363281 111.359375 125.199219 110.839844 125.183594 L 110.515625 125.183594 C 107.769531 124.722656 105.222656 123.738281 102.878906 122.238281 C 101.214844 121.039062 99.355469 120.433594 97.304688 120.425781 C 96.070312 120.429688 94.867188 120.628906 93.699219 121.019531 C 92.539062 120.632812 91.347656 120.4375 90.125 120.425781 C 88.109375 120.425781 86.269531 120.988281 84.601562 122.121094 C 82.179688 123.792969 79.507812 124.828125 76.589844 125.21875 C 76.0625 125.28125 75.597656 125.484375 75.191406 125.824219 C 74.785156 126.164062 74.5 126.585938 74.34375 127.09375 C 74.1875 127.597656 74.179688 128.105469 74.324219 128.617188 C 74.464844 129.128906 74.738281 129.558594 75.132812 129.910156 C 79.925781 134.125 85.007812 137.917969 93.75 137.917969 Z M 88.667969 125.964844 C 89.082031 125.855469 89.507812 125.796875 89.9375 125.792969 C 90.359375 125.800781 90.777344 125.84375 91.191406 125.929688 C 91.648438 126.039062 92.09375 126.179688 92.527344 126.351562 C 92.855469 126.488281 93.191406 126.558594 93.546875 126.554688 C 93.898438 126.554688 94.234375 126.488281 94.5625 126.351562 C 95.375 126.011719 96.222656 125.832031 97.101562 125.8125 C 98.109375 125.800781 99.019531 126.09375 99.828125 126.691406 C 101.359375 127.652344 102.957031 128.480469 104.621094 129.179688 C 103.816406 129.730469 102.972656 130.21875 102.09375 130.640625 C 101.214844 131.066406 100.308594 131.421875 99.375 131.710938 C 98.441406 132 97.492188 132.214844 96.527344 132.359375 C 95.558594 132.507812 94.589844 132.578125 93.613281 132.578125 C 92.636719 132.578125 91.664062 132.507812 90.699219 132.359375 C 89.734375 132.214844 88.785156 132 87.851562 131.710938 C 86.917969 131.421875 86.011719 131.066406 85.132812 130.640625 C 84.253906 130.21875 83.410156 129.730469 82.601562 129.179688 C 84.363281 128.515625 86.003906 127.636719 87.53125 126.539062 C 87.902344 126.285156 88.304688 126.09375 88.734375 125.964844 Z M 88.667969 125.964844 " fill-opacity="1" fill-rule="nonzero"/><path fill="#ffffff" d="M 54.960938 72.726562 C 55.714844 72.726562 56.351562 72.457031 56.875 71.914062 C 58.574219 70.449219 60.480469 69.34375 62.597656 68.601562 C 64.714844 67.855469 66.894531 67.519531 69.136719 67.597656 C 71.921875 67.683594 74.644531 68.132812 77.304688 68.941406 C 79.96875 69.75 82.480469 70.894531 84.839844 72.371094 C 85.148438 72.550781 85.480469 72.660156 85.835938 72.707031 C 86.191406 72.753906 86.539062 72.726562 86.882812 72.632812 C 87.226562 72.539062 87.542969 72.382812 87.824219 72.167969 C 88.105469 71.949219 88.335938 71.683594 88.515625 71.375 C 88.691406 71.066406 88.804688 70.734375 88.847656 70.382812 C 88.894531 70.027344 88.867188 69.679688 88.773438 69.335938 C 88.679688 68.996094 88.523438 68.683594 88.308594 68.402344 C 88.089844 68.121094 87.824219 67.890625 87.515625 67.714844 C 84.75 65.992188 81.808594 64.664062 78.6875 63.722656 C 75.566406 62.785156 72.378906 62.269531 69.121094 62.179688 C 67.648438 62.144531 66.191406 62.246094 64.738281 62.488281 C 63.289062 62.730469 61.875 63.109375 60.496094 63.621094 C 59.117188 64.136719 57.800781 64.777344 56.546875 65.542969 C 55.289062 66.304688 54.117188 67.183594 53.03125 68.171875 C 52.65625 68.5625 52.421875 69.019531 52.324219 69.550781 C 52.226562 70.078125 52.285156 70.589844 52.496094 71.085938 C 52.703125 71.582031 53.035156 71.980469 53.480469 72.277344 C 53.929688 72.574219 54.421875 72.726562 54.960938 72.726562 Z M 54.960938 72.726562 " fill-opacity="1" fill-rule="nonzero"/><path fill="#ffffff" d="M 101.285156 72.726562 C 101.761719 72.726562 102.210938 72.609375 102.625 72.371094 C 104.984375 70.894531 107.492188 69.746094 110.15625 68.933594 C 112.820312 68.121094 115.542969 67.671875 118.324219 67.582031 C 120.570312 67.507812 122.75 67.84375 124.867188 68.589844 C 126.984375 69.339844 128.890625 70.449219 130.589844 71.914062 C 131.113281 72.453125 131.75 72.71875 132.503906 72.710938 C 133.039062 72.714844 133.535156 72.566406 133.984375 72.269531 C 134.433594 71.972656 134.765625 71.578125 134.976562 71.082031 C 135.1875 70.589844 135.242188 70.074219 135.144531 69.546875 C 135.042969 69.019531 134.808594 68.558594 134.433594 68.171875 C 133.34375 67.183594 132.171875 66.304688 130.914062 65.539062 C 129.65625 64.773438 128.339844 64.132812 126.957031 63.621094 C 125.578125 63.109375 124.164062 62.730469 122.710938 62.488281 C 121.257812 62.246094 119.796875 62.140625 118.324219 62.179688 C 115.070312 62.269531 111.886719 62.785156 108.769531 63.726562 C 105.652344 64.664062 102.710938 65.996094 99.949219 67.714844 C 99.644531 67.894531 99.382812 68.128906 99.171875 68.410156 C 98.957031 68.695312 98.804688 69.007812 98.71875 69.347656 C 98.628906 69.691406 98.609375 70.039062 98.65625 70.390625 C 98.707031 70.742188 98.820312 71.070312 99 71.375 C 99.234375 71.785156 99.558594 72.109375 99.964844 72.351562 C 100.371094 72.59375 100.8125 72.71875 101.285156 72.726562 Z M 101.285156 72.726562 " fill-opacity="1" fill-rule="nonzero"/><path fill="#ffffff" d="M 86.871094 104.816406 C 86.546875 104.683594 86.207031 104.613281 85.855469 104.613281 C 85.5625 104.632812 85.28125 104.703125 85.011719 104.816406 C 84.738281 104.929688 84.492188 105.082031 84.273438 105.277344 C 84.054688 105.46875 83.871094 105.695312 83.722656 105.949219 C 83.574219 106.203125 83.472656 106.472656 83.414062 106.761719 C 83.355469 107.046875 83.34375 107.335938 83.378906 107.628906 C 83.417969 107.921875 83.5 108.199219 83.625 108.460938 C 83.753906 108.726562 83.917969 108.964844 84.125 109.175781 C 84.328125 109.386719 84.5625 109.558594 84.820312 109.691406 L 86.023438 110.199219 C 87.246094 110.707031 88.507812 111.09375 89.804688 111.351562 C 91.105469 111.609375 92.414062 111.738281 93.738281 111.738281 C 95.0625 111.738281 96.375 111.609375 97.671875 111.351562 C 98.972656 111.09375 100.234375 110.707031 101.457031 110.199219 L 102.65625 109.691406 C 102.917969 109.558594 103.152344 109.386719 103.355469 109.175781 C 103.5625 108.964844 103.726562 108.726562 103.855469 108.460938 C 103.980469 108.199219 104.0625 107.921875 104.101562 107.628906 C 104.136719 107.335938 104.125 107.046875 104.066406 106.761719 C 104.007812 106.472656 103.90625 106.203125 103.757812 105.949219 C 103.609375 105.695312 103.425781 105.46875 103.207031 105.277344 C 102.984375 105.082031 102.742188 104.929688 102.46875 104.816406 C 102.199219 104.703125 101.917969 104.632812 101.625 104.613281 C 101.273438 104.613281 100.933594 104.683594 100.609375 104.816406 L 99.390625 105.304688 C 97.585938 106.066406 95.703125 106.441406 93.75 106.441406 C 91.78125 106.441406 89.890625 106.066406 88.074219 105.304688 Z M 86.871094 104.816406 " fill-opacity="1" fill-rule="nonzero"/><path fill="#ffffff" d="M 119.648438 87.628906 C 120.703125 87.683594 121.75 87.59375 122.785156 87.367188 C 123.820312 87.140625 124.804688 86.78125 125.746094 86.289062 C 126.683594 85.800781 127.539062 85.191406 128.316406 84.472656 C 129.089844 83.75 129.757812 82.941406 130.316406 82.042969 C 130.425781 81.835938 130.507812 81.621094 130.558594 81.398438 C 130.613281 81.171875 130.632812 80.945312 130.628906 80.714844 C 130.621094 80.484375 130.585938 80.257812 130.519531 80.035156 C 130.457031 79.8125 130.363281 79.605469 130.246094 79.40625 C 130.125 79.207031 129.980469 79.027344 129.816406 78.867188 C 129.652344 78.707031 129.46875 78.570312 129.265625 78.457031 C 129.0625 78.34375 128.851562 78.257812 128.628906 78.199219 C 128.40625 78.140625 128.175781 78.113281 127.945312 78.113281 C 127.445312 78.113281 126.980469 78.242188 126.550781 78.5 C 126.125 78.761719 125.792969 79.109375 125.558594 79.550781 C 125.234375 80.019531 124.859375 80.433594 124.425781 80.800781 C 123.992188 81.164062 123.519531 81.46875 123.003906 81.707031 C 122.492188 81.945312 121.957031 82.113281 121.398438 82.210938 C 120.839844 82.308594 120.277344 82.332031 119.714844 82.277344 C 118.328125 82.257812 116.972656 82.042969 115.648438 81.636719 C 113.503906 80.964844 111.308594 80.617188 109.058594 80.585938 C 107.65625 80.546875 106.292969 80.75 104.960938 81.195312 L 104.808594 81.195312 C 104.523438 81.316406 104.269531 81.484375 104.042969 81.695312 C 103.816406 81.902344 103.632812 82.144531 103.488281 82.417969 C 103.34375 82.695312 103.253906 82.984375 103.207031 83.289062 C 103.164062 83.597656 103.175781 83.898438 103.234375 84.203125 C 103.296875 84.507812 103.410156 84.789062 103.566406 85.054688 C 103.726562 85.320312 103.925781 85.550781 104.164062 85.746094 C 104.402344 85.941406 104.667969 86.09375 104.960938 86.199219 C 105.25 86.304688 105.550781 86.355469 105.859375 86.359375 C 106.195312 86.363281 106.515625 86.300781 106.824219 86.171875 C 107.558594 85.984375 108.304688 85.898438 109.058594 85.917969 C 110.792969 85.9375 112.488281 86.210938 114.140625 86.730469 C 115.933594 87.292969 117.769531 87.589844 119.648438 87.628906 Z M 119.648438 87.628906 " fill-opacity="1" fill-rule="nonzero"/><path fill="#ffffff" d="M 80.65625 86.242188 C 80.953125 86.339844 81.257812 86.390625 81.570312 86.394531 C 82.125 86.394531 82.636719 86.242188 83.101562 85.933594 C 83.5625 85.625 83.898438 85.214844 84.109375 84.699219 C 84.230469 84.378906 84.289062 84.046875 84.28125 83.703125 C 84.277344 83.363281 84.207031 83.03125 84.070312 82.71875 C 83.9375 82.402344 83.75 82.121094 83.507812 81.878906 C 83.265625 81.636719 82.984375 81.449219 82.671875 81.3125 L 82.265625 81.160156 C 81.007812 80.804688 79.726562 80.636719 78.417969 80.652344 C 76.839844 80.660156 75.28125 80.84375 73.746094 81.195312 C 73.136719 81.332031 72.507812 81.5 71.832031 81.703125 C 70.511719 82.109375 69.164062 82.324219 67.78125 82.347656 C 67.21875 82.398438 66.65625 82.378906 66.09375 82.28125 C 65.535156 82.183594 64.996094 82.015625 64.484375 81.777344 C 63.96875 81.535156 63.492188 81.234375 63.058594 80.867188 C 62.625 80.503906 62.246094 80.085938 61.921875 79.621094 C 61.6875 79.179688 61.355469 78.828125 60.925781 78.570312 C 60.5 78.3125 60.035156 78.183594 59.535156 78.179688 C 59.09375 78.183594 58.675781 78.285156 58.28125 78.484375 C 57.96875 78.652344 57.699219 78.875 57.472656 79.148438 C 57.246094 79.421875 57.078125 79.726562 56.976562 80.066406 C 56.871094 80.40625 56.835938 80.753906 56.867188 81.105469 C 56.898438 81.460938 56.996094 81.792969 57.164062 82.109375 C 57.722656 83.007812 58.386719 83.820312 59.164062 84.539062 C 59.941406 85.261719 60.796875 85.867188 61.734375 86.359375 C 62.671875 86.851562 63.660156 87.210938 64.695312 87.4375 C 65.730469 87.664062 66.777344 87.75 67.832031 87.695312 C 69.714844 87.679688 71.554688 87.398438 73.355469 86.851562 C 75.007812 86.332031 76.703125 86.058594 78.4375 86.039062 C 79.1875 85.980469 79.925781 86.050781 80.65625 86.242188 Z M 80.65625 86.242188 " fill-opacity="1" fill-rule="nonzero"/></svg>