<svg xmlns="http://www.w3.org/2000/svg" xmlns:xlink="http://www.w3.org/1999/xlink" width="250" zoomAndPan="magnify" viewBox="0 0 187.5 187.499992" height="250" preserveAspectRatio="xMidYMid meet" version="1.0"><defs><clipPath id="5125b5e84f"><path d="M 8.296875 42.40625 L 174 42.40625 L 174 145 L 8.296875 145 Z M 8.296875 42.40625 " clip-rule="nonzero"/></clipPath></defs><g clip-path="url(#5125b5e84f)"><path fill="#ffffff" d="M 169.910156 81.511719 C 161.011719 82.367188 152.183594 83.910156 143.527344 80.792969 C 137.652344 78.703125 131.746094 75.175781 126.214844 80.109375 C 125.664062 80.621094 125.183594 81.375 124.941406 82.367188 C 115.390625 85.828125 107.628906 93.738281 104.777344 104.253906 C 100.171875 121.375 110.375 138.976562 127.554688 143.566406 C 144.730469 148.15625 162.386719 137.984375 166.992188 120.859375 C 169.328125 112.128906 167.851562 103.292969 163.519531 96.101562 C 165.996094 94.421875 168.054688 92.472656 169.53125 90.621094 C 170.976562 88.875 173.039062 86.238281 173.378906 83.910156 C 173.929688 80.757812 173.378906 81.171875 169.910156 81.511719 Z M 162.867188 119.800781 C 158.882812 134.628906 143.5625 143.464844 128.6875 139.492188 C 113.8125 135.519531 104.949219 120.246094 108.933594 105.417969 C 111.269531 96.71875 117.523438 90.109375 125.285156 86.890625 C 125.734375 88.15625 126.488281 89.492188 127.65625 90.894531 C 131.503906 95.585938 139.097656 100.417969 148.542969 100.585938 C 152.734375 100.792969 156.546875 99.835938 159.84375 98.292969 C 163.589844 104.492188 164.929688 112.195312 162.867188 119.800781 Z M 144.488281 129.183594 C 142.324219 132.777344 136.898438 135.003906 130.335938 133.257812 C 123.808594 131.476562 120.234375 126.855469 120.132812 122.675781 C 120.097656 120.3125 122.605469 118.738281 124.734375 119.800781 C 130.09375 122.4375 135.96875 124.011719 141.914062 124.386719 C 144.316406 124.523438 145.726562 127.164062 144.488281 129.183594 Z M 154.175781 113.054688 C 153.558594 115.347656 151.222656 116.683594 148.921875 116.066406 C 146.621094 115.449219 145.28125 113.121094 145.898438 110.828125 C 146.515625 108.53125 148.851562 107.195312 151.152344 107.8125 C 153.421875 108.429688 154.796875 110.757812 154.175781 113.054688 Z M 119.960938 103.910156 C 120.578125 101.613281 122.914062 100.28125 125.21875 100.894531 C 127.519531 101.511719 128.859375 103.839844 128.238281 106.136719 C 127.621094 108.429688 125.285156 109.765625 122.984375 109.148438 C 120.683594 108.53125 119.34375 106.203125 119.960938 103.910156 Z M 90.453125 91.648438 C 90.347656 95.828125 86.777344 100.484375 80.25 102.230469 C 73.722656 103.945312 68.292969 101.71875 66.09375 98.15625 C 64.859375 96.136719 66.265625 93.53125 68.636719 93.363281 C 74.578125 92.984375 80.453125 91.410156 85.8125 88.773438 C 87.976562 87.710938 90.484375 89.285156 90.453125 91.648438 Z M 90.761719 72.882812 C 91.378906 75.175781 90.003906 77.507812 87.738281 78.121094 C 85.4375 78.738281 83.101562 77.371094 82.480469 75.109375 C 81.863281 72.816406 83.238281 70.484375 85.503906 69.871094 C 87.773438 69.21875 90.140625 70.589844 90.761719 72.882812 Z M 64.824219 79.800781 C 65.441406 82.09375 64.066406 84.425781 61.800781 85.039062 C 59.5 85.65625 57.164062 84.285156 56.542969 82.027344 C 55.925781 79.730469 57.300781 77.402344 59.566406 76.789062 C 61.835938 76.171875 64.207031 77.507812 64.824219 79.800781 Z M 105.808594 73.261719 C 101.203125 56.136719 83.546875 45.964844 66.371094 50.554688 C 65.71875 50.726562 65.097656 50.933594 64.480469 51.136719 C 64.515625 51.34375 64.515625 51.546875 64.480469 51.753906 C 64.480469 51.789062 64.480469 51.789062 64.480469 51.820312 C 64.480469 51.925781 64.445312 51.992188 64.445312 52.097656 C 64.445312 52.128906 64.445312 52.164062 64.445312 52.164062 C 64.445312 52.265625 64.410156 52.371094 64.378906 52.4375 C 64.066406 53.671875 63.140625 54.664062 61.902344 55.042969 L 53.832031 57.542969 L 53.039062 57.78125 C 52.902344 57.917969 52.765625 58.054688 52.628906 58.191406 L 49.535156 66.925781 C 49.125 68.054688 48.195312 68.945312 46.992188 69.253906 C 46.925781 69.289062 46.824219 69.289062 46.753906 69.320312 C 46.71875 69.320312 46.683594 69.320312 46.683594 69.320312 C 46.617188 69.320312 46.582031 69.355469 46.511719 69.355469 C 46.480469 69.355469 46.445312 69.355469 46.410156 69.355469 C 46.375 69.355469 46.308594 69.355469 46.273438 69.355469 C 46.238281 69.355469 46.203125 69.355469 46.167969 69.355469 C 46.136719 69.355469 46.066406 69.355469 46.03125 69.355469 C 45.996094 69.355469 45.964844 69.355469 45.929688 69.355469 C 45.894531 69.355469 45.859375 69.355469 45.792969 69.355469 C 45.757812 69.355469 45.722656 69.355469 45.6875 69.355469 C 45.65625 69.355469 45.621094 69.355469 45.550781 69.355469 C 45.515625 69.355469 45.484375 69.355469 45.449219 69.355469 C 45.414062 69.355469 45.34375 69.355469 45.3125 69.320312 C 45.277344 69.320312 45.242188 69.320312 45.207031 69.289062 C 45.140625 69.253906 45.070312 69.253906 44.96875 69.21875 C 42.320312 75.554688 41.667969 82.746094 43.59375 89.867188 C 48.195312 106.992188 65.855469 117.164062 83.03125 112.574219 C 100.207031 107.984375 110.410156 90.382812 105.808594 73.261719 Z M 81.933594 108.429688 C 67.054688 112.402344 51.734375 103.566406 47.75 88.738281 C 46.375 83.601562 46.546875 78.398438 47.957031 73.601562 L 71.96875 67.199219 L 74.410156 55.828125 L 82.207031 64.492188 L 93.886719 61.375 C 97.527344 64.800781 100.277344 69.21875 101.652344 74.355469 C 105.636719 89.183594 96.808594 104.457031 81.933594 108.429688 Z M 38.613281 57.027344 L 48.816406 53.84375 L 52.386719 43.808594 C 52.765625 42.710938 54.175781 42.40625 54.964844 43.261719 L 61.902344 50.453125 C 62.695312 51.273438 62.351562 52.679688 61.25 53.019531 L 51.046875 56.207031 L 47.476562 66.238281 C 47.097656 67.335938 45.6875 67.644531 44.898438 66.789062 L 37.960938 59.597656 C 37.167969 58.738281 37.511719 57.371094 38.613281 57.027344 Z M 42.699219 67.609375 C 40.535156 71.066406 38.097656 75.929688 35.039062 80.417969 C 32.050781 84.902344 28.890625 87.4375 25.523438 87.027344 C 22.191406 86.753906 18.6875 83.566406 15.835938 79.902344 C 12.914062 76.136719 10.75 72.09375 9.652344 69.457031 C 8.519531 66.753906 8.414062 65.453125 9.171875 65.417969 C 10.785156 65.382812 14.941406 68.707031 18.652344 68.328125 C 22.5 68.261719 26.003906 64.835938 29.472656 59.734375 C 32.839844 54.902344 36.652344 50.625 40.878906 50.144531 C 43.113281 49.699219 45.550781 50.726562 47.269531 51.71875 L 47.132812 52.128906 L 37.960938 54.972656 C 36.722656 55.347656 35.792969 56.34375 35.484375 57.574219 C 35.175781 58.808594 35.519531 60.109375 36.414062 61.070312 Z M 42.699219 67.609375 " fill-opacity="1" fill-rule="nonzero"/></g></svg>