<svg xmlns="http://www.w3.org/2000/svg" xmlns:xlink="http://www.w3.org/1999/xlink" width="250" zoomAndPan="magnify" viewBox="0 0 187.5 187.499992" height="250" preserveAspectRatio="xMidYMid meet" version="1.0"><defs><clipPath id="0d78fe8346"><path d="M 127 115 L 135 115 L 135 168.75 L 127 168.75 Z M 127 115 " clip-rule="nonzero"/></clipPath><clipPath id="11dbd5a8ba"><path d="M 51 115 L 60 115 L 60 168.75 L 51 168.75 Z M 51 115 " clip-rule="nonzero"/></clipPath><clipPath id="4f199894bb"><path d="M 22 18.75 L 76 18.75 L 76 83 L 22 83 Z M 22 18.75 " clip-rule="nonzero"/></clipPath><clipPath id="9cfff3d4eb"><path d="M 111 18.75 L 164 18.75 L 164 84 L 111 84 Z M 111 18.75 " clip-rule="nonzero"/></clipPath><clipPath id="f48311089b"><path d="M 12.226562 91 L 75 91 L 75 144 L 12.226562 144 Z M 12.226562 91 " clip-rule="nonzero"/></clipPath><clipPath id="219f9e8ed4"><path d="M 12.226562 58 L 60 58 L 60 116 L 12.226562 116 Z M 12.226562 58 " clip-rule="nonzero"/></clipPath><clipPath id="751c7a3702"><path d="M 111 91 L 174.976562 91 L 174.976562 144 L 111 144 Z M 111 91 " clip-rule="nonzero"/></clipPath><clipPath id="c82465f119"><path d="M 126 58 L 174.976562 58 L 174.976562 117 L 126 117 Z M 126 58 " clip-rule="nonzero"/></clipPath></defs><g clip-path="url(#0d78fe8346)"><path fill="#ffffff" d="M 131.6875 168.734375 C 131.046875 168.734375 130.46875 168.28125 130.335938 167.628906 L 128.613281 159.222656 C 126.511719 148.941406 126.523438 138.941406 128.664062 129.5 C 128.847656 128.675781 129.050781 127.84375 129.265625 127.027344 C 129.800781 125.03125 130.507812 122.703125 131.199219 120.457031 C 131.566406 119.25 131.933594 118.0625 132.257812 116.953125 C 132.480469 116.214844 133.246094 115.800781 133.976562 116.011719 C 134.710938 116.226562 135.128906 117.003906 134.914062 117.730469 C 134.578125 118.855469 134.214844 120.054688 133.84375 121.261719 C 133.15625 123.488281 132.453125 125.792969 131.941406 127.738281 C 131.730469 128.523438 131.535156 129.316406 131.359375 130.109375 C 129.3125 139.164062 129.296875 148.769531 131.320312 158.664062 L 133.042969 167.070312 C 133.195312 167.820312 132.714844 168.550781 131.964844 168.707031 C 131.871094 168.722656 131.78125 168.734375 131.6875 168.734375 " fill-opacity="1" fill-rule="nonzero"/></g><g clip-path="url(#11dbd5a8ba)"><path fill="#ffffff" d="M 55.058594 168.734375 C 54.972656 168.734375 54.890625 168.726562 54.804688 168.707031 C 54.054688 168.570312 53.5625 167.851562 53.699219 167.09375 L 55.40625 157.859375 C 57.027344 149.035156 57.085938 140.503906 55.578125 132.503906 C 55.273438 130.910156 54.910156 129.304688 54.492188 127.738281 C 53.605469 124.390625 52.6875 121.015625 51.75 117.695312 C 51.539062 116.964844 51.964844 116.195312 52.699219 115.988281 C 53.429688 115.785156 54.195312 116.207031 54.402344 116.945312 C 55.347656 120.269531 56.273438 123.667969 57.167969 127.027344 C 57.597656 128.65625 57.976562 130.328125 58.289062 131.988281 C 59.867188 140.324219 59.808594 149.199219 58.117188 158.359375 L 56.414062 167.601562 C 56.292969 168.265625 55.710938 168.734375 55.058594 168.734375 " fill-opacity="1" fill-rule="nonzero"/></g><g clip-path="url(#4f199894bb)"><path fill="#ffffff" d="M 25.117188 82.894531 C 24.480469 82.894531 23.910156 82.457031 23.765625 81.808594 C 21.878906 73.328125 22.1875 64.769531 24.664062 57.074219 C 27.535156 48.15625 33.484375 40.390625 41 35.777344 C 45.183594 33.207031 49.917969 31.5 54.488281 29.847656 C 61.632812 27.265625 68.382812 24.828125 72.976562 19.417969 C 73.472656 18.832031 74.347656 18.765625 74.929688 19.257812 C 75.503906 19.753906 75.582031 20.628906 75.082031 21.214844 C 70.011719 27.183594 62.597656 29.859375 55.425781 32.449219 C 50.980469 34.058594 46.386719 35.714844 42.445312 38.136719 C 35.488281 42.410156 29.964844 49.621094 27.296875 57.925781 C 24.96875 65.148438 24.683594 73.199219 26.464844 81.203125 C 26.628906 81.953125 26.160156 82.691406 25.417969 82.863281 C 25.316406 82.878906 25.214844 82.894531 25.117188 82.894531 " fill-opacity="1" fill-rule="nonzero"/></g><path fill="#ffffff" d="M 37.371094 162.914062 C 37.238281 162.914062 37.105469 162.894531 36.976562 162.855469 C 36.25 162.640625 35.832031 161.863281 36.046875 161.132812 C 36.101562 160.929688 41.953125 140.828125 41.46875 122.964844 C 41.445312 122.203125 42.046875 121.566406 42.8125 121.542969 C 43.582031 121.523438 44.207031 122.125 44.234375 122.894531 C 44.726562 141.203125 38.753906 161.710938 38.695312 161.914062 C 38.519531 162.519531 37.964844 162.914062 37.371094 162.914062 " fill-opacity="1" fill-rule="nonzero"/><g clip-path="url(#9cfff3d4eb)"><path fill="#ffffff" d="M 161.117188 83.761719 C 161.007812 83.761719 160.898438 83.75 160.792969 83.726562 C 160.050781 83.539062 159.59375 82.792969 159.773438 82.050781 C 161.773438 73.765625 161.550781 65.421875 159.136719 57.925781 C 156.46875 49.621094 150.949219 42.410156 143.988281 38.136719 C 140.046875 35.714844 135.453125 34.058594 131.007812 32.449219 C 123.84375 29.859375 116.421875 27.183594 111.351562 21.214844 C 110.859375 20.628906 110.929688 19.753906 111.511719 19.257812 C 112.09375 18.765625 112.960938 18.832031 113.457031 19.417969 C 118.050781 24.828125 124.800781 27.265625 131.945312 29.847656 C 136.523438 31.5 141.25 33.207031 145.433594 35.777344 C 152.945312 40.390625 158.902344 48.15625 161.769531 57.074219 C 164.339844 65.0625 164.574219 73.921875 162.457031 82.703125 C 162.304688 83.335938 161.742188 83.761719 161.117188 83.761719 " fill-opacity="1" fill-rule="nonzero"/></g><path fill="#ffffff" d="M 149.070312 162.914062 C 148.472656 162.914062 147.921875 162.519531 147.746094 161.914062 C 147.679688 161.710938 141.707031 141.203125 142.207031 122.894531 C 142.226562 122.136719 142.839844 121.542969 143.585938 121.542969 C 143.601562 121.542969 143.613281 121.542969 143.625 121.542969 C 144.386719 121.566406 144.988281 122.203125 144.96875 122.964844 C 144.480469 140.828125 150.332031 160.929688 150.394531 161.132812 C 150.609375 161.863281 150.191406 162.640625 149.457031 162.855469 C 149.328125 162.894531 149.195312 162.914062 149.070312 162.914062 " fill-opacity="1" fill-rule="nonzero"/><g clip-path="url(#f48311089b)"><path fill="#ffffff" d="M 13.875 143.613281 C 13.539062 143.613281 13.195312 143.488281 12.929688 143.238281 C 12.371094 142.71875 12.339844 141.84375 12.867188 141.285156 L 39.207031 112.972656 C 39.40625 112.761719 39.660156 112.617188 39.945312 112.558594 L 48.296875 110.839844 C 50.730469 110.335938 52.914062 109.105469 54.613281 107.277344 C 57.925781 103.722656 63.382812 99.125 70.929688 96.839844 C 70.335938 95.628906 68.960938 93.972656 65.898438 94.148438 C 65.125 94.1875 64.480469 93.609375 64.433594 92.847656 C 64.398438 92.078125 64.972656 91.425781 65.742188 91.378906 C 71.398438 91.082031 73.660156 95.265625 74.0625 97.539062 C 74.1875 98.257812 73.742188 98.949219 73.039062 99.125 C 64.992188 101.167969 59.308594 106.292969 56.632812 109.167969 C 54.542969 111.414062 51.851562 112.933594 48.851562 113.546875 L 40.933594 115.179688 L 14.886719 143.167969 C 14.617188 143.460938 14.242188 143.613281 13.875 143.613281 " fill-opacity="1" fill-rule="nonzero"/></g><g clip-path="url(#219f9e8ed4)"><path fill="#ffffff" d="M 13.875 115.300781 C 13.519531 115.300781 13.164062 115.160156 12.890625 114.886719 C 12.351562 114.347656 12.359375 113.472656 12.898438 112.933594 L 16.910156 108.953125 C 20.488281 105.390625 23.0625 101.03125 24.347656 96.332031 C 25.703125 91.378906 28.703125 84.214844 35.28125 78.15625 C 36.484375 77.046875 37.679688 75.796875 39.042969 74.214844 C 42.808594 69.828125 49.59375 61.976562 52.757812 58.613281 C 52.941406 58.414062 53.175781 58.273438 53.429688 58.210938 C 53.695312 58.148438 56.0625 57.613281 57.800781 58.953125 C 58.511719 59.507812 59.367188 60.574219 59.398438 62.558594 C 59.402344 62.898438 59.285156 63.226562 59.066406 63.488281 L 48.402344 75.949219 C 47.910156 76.53125 47.035156 76.597656 46.457031 76.101562 C 45.882812 75.605469 45.8125 74.730469 46.304688 74.152344 L 56.597656 62.117188 C 56.527344 61.671875 56.367188 61.347656 56.121094 61.15625 C 55.675781 60.808594 54.9375 60.796875 54.449219 60.847656 C 51.203125 64.335938 44.765625 71.796875 41.132812 76.019531 C 39.703125 77.6875 38.433594 79.015625 37.148438 80.195312 C 31.054688 85.808594 28.269531 92.464844 27.011719 97.070312 C 25.597656 102.230469 22.777344 107.015625 18.855469 110.914062 L 14.851562 114.894531 C 14.578125 115.167969 14.230469 115.300781 13.875 115.300781 " fill-opacity="1" fill-rule="nonzero"/></g><path fill="#ffffff" d="M 52.046875 79.363281 C 51.734375 79.363281 51.433594 79.261719 51.171875 79.058594 C 50.582031 78.578125 50.496094 77.699219 50.976562 77.109375 L 63.625 61.53125 C 63.679688 61.167969 63.695312 60.730469 63.492188 60.503906 C 63.242188 60.222656 62.65625 60.101562 62.148438 60.089844 L 59.035156 63.511719 C 58.523438 64.082031 57.65625 64.121094 57.085938 63.609375 C 56.519531 63.09375 56.480469 62.21875 56.996094 61.652344 L 60.492188 57.804688 C 60.714844 57.558594 61.011719 57.40625 61.34375 57.359375 C 61.621094 57.324219 64.113281 57.054688 65.542969 58.644531 C 66.121094 59.289062 66.722656 60.476562 66.261719 62.453125 C 66.210938 62.65625 66.113281 62.847656 65.980469 63.011719 L 53.117188 78.855469 C 52.84375 79.191406 52.445312 79.363281 52.046875 79.363281 " fill-opacity="1" fill-rule="nonzero"/><path fill="#ffffff" d="M 56.457031 83.355469 C 56.164062 83.355469 55.867188 83.261719 55.613281 83.066406 C 55.011719 82.601562 54.898438 81.730469 55.367188 81.121094 L 70.355469 61.671875 C 70.316406 61.117188 70.15625 60.71875 69.878906 60.472656 C 69.492188 60.128906 68.851562 60.046875 68.390625 60.039062 L 65.988281 63.011719 C 65.507812 63.601562 64.636719 63.691406 64.042969 63.214844 C 63.445312 62.730469 63.359375 61.855469 63.839844 61.265625 L 66.621094 57.835938 C 66.832031 57.578125 67.128906 57.398438 67.457031 57.34375 C 67.71875 57.304688 70.035156 56.941406 71.683594 58.375 C 72.375 58.980469 73.1875 60.128906 73.121094 62.183594 C 73.109375 62.472656 73.007812 62.75 72.835938 62.984375 L 57.554688 82.816406 C 57.28125 83.171875 56.875 83.355469 56.457031 83.355469 " fill-opacity="1" fill-rule="nonzero"/><path fill="#ffffff" d="M 56.457031 98.546875 C 56.230469 98.546875 55.988281 98.492188 55.773438 98.363281 C 55.113281 97.984375 54.886719 97.136719 55.257812 96.472656 C 61.242188 86.042969 70.207031 70.296875 71.308594 68.082031 C 71.195312 66.425781 69.984375 66.148438 69.605469 66.097656 C 68.859375 66.007812 68.308594 65.335938 68.382812 64.578125 C 68.464844 63.828125 69.117188 63.277344 69.871094 63.339844 C 71.328125 63.472656 74.085938 64.6875 74.085938 68.34375 C 74.085938 68.824219 74.085938 69.207031 57.660156 97.851562 C 57.402344 98.300781 56.9375 98.546875 56.457031 98.546875 " fill-opacity="1" fill-rule="nonzero"/><g clip-path="url(#751c7a3702)"><path fill="#ffffff" d="M 173.332031 143.613281 C 172.972656 143.613281 172.617188 143.472656 172.34375 143.199219 L 144.835938 115.1875 L 136.890625 113.546875 C 133.890625 112.933594 131.199219 111.414062 129.109375 109.167969 C 126.433594 106.292969 120.75 101.167969 112.703125 99.125 C 112 98.949219 111.554688 98.257812 111.683594 97.539062 C 112.085938 95.265625 114.335938 91.074219 120.007812 91.378906 C 120.769531 91.425781 121.351562 92.078125 121.308594 92.847656 C 121.261719 93.609375 120.617188 94.1875 119.851562 94.148438 C 116.789062 93.972656 115.414062 95.621094 114.820312 96.839844 C 122.367188 99.125 127.816406 103.722656 131.128906 107.277344 C 132.828125 109.105469 135.015625 110.335938 137.449219 110.839844 L 145.804688 112.558594 C 146.070312 112.617188 146.320312 112.75 146.507812 112.945312 L 174.316406 141.257812 C 174.851562 141.804688 174.847656 142.679688 174.300781 143.214844 C 174.035156 143.480469 173.679688 143.613281 173.332031 143.613281 " fill-opacity="1" fill-rule="nonzero"/></g><g clip-path="url(#c82465f119)"><path fill="#ffffff" d="M 172.65625 116.074219 C 172.300781 116.074219 171.953125 115.941406 171.679688 115.675781 L 166.886719 110.914062 C 162.964844 107.015625 160.144531 102.230469 158.734375 97.070312 C 157.472656 92.464844 154.691406 85.808594 148.59375 80.195312 C 147.308594 79.015625 146.039062 77.6875 144.609375 76.019531 C 141.6875 72.617188 134.683594 64.496094 131.292969 60.847656 C 130.8125 60.796875 130.066406 60.808594 129.621094 61.15625 C 129.375 61.347656 129.214844 61.671875 129.144531 62.117188 L 139.4375 74.152344 C 139.929688 74.730469 139.867188 75.605469 139.285156 76.101562 C 138.707031 76.597656 137.832031 76.53125 137.339844 75.949219 L 126.679688 63.488281 C 126.460938 63.226562 126.339844 62.898438 126.34375 62.558594 C 126.382812 60.574219 127.234375 59.507812 127.941406 58.953125 C 129.679688 57.613281 132.046875 58.148438 132.316406 58.210938 C 132.574219 58.273438 132.808594 58.414062 132.992188 58.613281 C 136.15625 61.980469 142.941406 69.835938 146.707031 74.214844 C 148.0625 75.796875 149.257812 77.046875 150.464844 78.15625 C 157.046875 84.214844 160.042969 91.386719 161.394531 96.332031 C 162.6875 101.03125 165.253906 105.390625 168.839844 108.953125 L 173.625 113.707031 C 174.167969 114.246094 174.167969 115.125 173.636719 115.667969 C 173.363281 115.941406 173.007812 116.074219 172.65625 116.074219 " fill-opacity="1" fill-rule="nonzero"/></g><path fill="#ffffff" d="M 133.703125 79.363281 C 133.296875 79.363281 132.898438 79.191406 132.625 78.855469 L 119.761719 63.011719 C 119.628906 62.847656 119.535156 62.65625 119.488281 62.453125 C 119.027344 60.476562 119.621094 59.289062 120.203125 58.644531 C 121.628906 57.054688 124.121094 57.324219 124.398438 57.359375 C 124.730469 57.40625 125.027344 57.558594 125.25 57.804688 L 128.746094 61.652344 C 129.261719 62.21875 129.222656 63.09375 128.660156 63.609375 C 128.09375 64.121094 127.21875 64.082031 126.707031 63.511719 L 123.59375 60.089844 C 123.09375 60.101562 122.503906 60.222656 122.25 60.503906 C 122.050781 60.730469 122.0625 61.167969 122.117188 61.53125 L 134.773438 77.109375 C 135.25 77.699219 135.160156 78.578125 134.570312 79.058594 C 134.316406 79.261719 134.007812 79.363281 133.703125 79.363281 " fill-opacity="1" fill-rule="nonzero"/><path fill="#ffffff" d="M 129.285156 83.355469 C 128.875 83.355469 128.460938 83.171875 128.1875 82.816406 L 112.910156 62.984375 C 112.734375 62.75 112.632812 62.472656 112.621094 62.183594 C 112.554688 60.128906 113.367188 58.980469 114.058594 58.375 C 115.707031 56.941406 118.03125 57.296875 118.292969 57.34375 C 118.613281 57.398438 118.914062 57.578125 119.128906 57.835938 L 121.902344 61.265625 C 122.386719 61.855469 122.296875 62.730469 121.699219 63.214844 C 121.109375 63.695312 120.242188 63.601562 119.761719 63.011719 L 117.351562 60.039062 C 116.890625 60.046875 116.257812 60.128906 115.863281 60.472656 C 115.585938 60.71875 115.425781 61.117188 115.390625 61.671875 L 130.375 81.121094 C 130.84375 81.730469 130.730469 82.601562 130.128906 83.066406 C 129.875 83.261719 129.578125 83.355469 129.285156 83.355469 " fill-opacity="1" fill-rule="nonzero"/><path fill="#ffffff" d="M 129.285156 98.546875 C 128.808594 98.546875 128.339844 98.300781 128.089844 97.851562 C 111.664062 69.207031 111.664062 68.824219 111.664062 68.34375 C 111.664062 64.6875 114.417969 63.472656 115.871094 63.339844 C 116.632812 63.285156 117.304688 63.835938 117.371094 64.597656 C 117.441406 65.351562 116.882812 66.027344 116.136719 66.101562 C 115.75 66.148438 114.546875 66.425781 114.433594 68.082031 C 115.535156 70.296875 124.5 86.042969 130.484375 96.472656 C 130.863281 97.136719 130.636719 97.984375 129.96875 98.363281 C 129.753906 98.492188 129.519531 98.546875 129.285156 98.546875 " fill-opacity="1" fill-rule="nonzero"/><path fill="#ffffff" d="M 79.636719 77.757812 C 79.460938 77.757812 79.28125 77.726562 79.117188 77.65625 C 78.40625 77.363281 78.066406 76.558594 78.351562 75.851562 C 81.164062 68.914062 80.398438 60.695312 76.355469 54.394531 C 75.941406 53.75 76.125 52.890625 76.765625 52.480469 C 77.414062 52.066406 78.269531 52.25 78.679688 52.898438 C 83.203125 59.9375 84.058594 69.128906 80.917969 76.894531 C 80.695312 77.425781 80.183594 77.757812 79.636719 77.757812 " fill-opacity="1" fill-rule="nonzero"/><path fill="#ffffff" d="M 106.804688 77.757812 C 106.257812 77.757812 105.738281 77.425781 105.523438 76.894531 C 102.375 69.128906 103.234375 59.9375 107.757812 52.898438 C 108.164062 52.25 109.027344 52.066406 109.667969 52.480469 C 110.308594 52.890625 110.492188 53.75 110.078125 54.394531 C 106.035156 60.695312 105.269531 68.914062 108.082031 75.851562 C 108.367188 76.558594 108.027344 77.363281 107.324219 77.65625 C 107.152344 77.726562 106.972656 77.757812 106.804688 77.757812 " fill-opacity="1" fill-rule="nonzero"/></svg>