<svg xmlns="http://www.w3.org/2000/svg" xmlns:xlink="http://www.w3.org/1999/xlink" width="250" zoomAndPan="magnify" viewBox="0 0 187.5 187.499992" height="250" preserveAspectRatio="xMidYMid meet" version="1.0"><defs><clipPath id="277fc93c17"><path d="M 19 14.464844 L 183 14.464844 L 183 172.714844 L 19 172.714844 Z M 19 14.464844 " clip-rule="nonzero"/></clipPath></defs><g clip-path="url(#277fc93c17)"><path fill="#ffffff" d="M 182.789062 161.007812 C 180.992188 154.269531 177.503906 148.058594 172.535156 143.007812 C 172.535156 143.007812 172.535156 143.007812 172.429688 142.902344 L 144.527344 118.480469 L 146.324219 116.796875 C 147.0625 116.167969 147.378906 115.21875 147.378906 114.273438 C 147.378906 113.324219 146.957031 112.378906 146.324219 111.746094 L 145.160156 110.585938 L 146.640625 109.113281 C 147.273438 108.484375 147.273438 107.535156 146.640625 106.902344 C 146.007812 106.273438 145.054688 106.273438 144.421875 106.902344 L 141.777344 109.535156 L 140.085938 111.21875 C 139.453125 111.851562 139.453125 112.796875 140.085938 113.429688 C 140.40625 113.746094 140.828125 113.851562 141.25 113.851562 C 141.671875 113.851562 142.097656 113.746094 142.414062 113.429688 L 143.046875 112.796875 L 144.210938 113.957031 C 144.316406 114.0625 144.316406 114.167969 144.316406 114.273438 C 144.316406 114.375 144.316406 114.480469 144.210938 114.585938 L 133.007812 125.640625 C 132.792969 125.851562 132.476562 125.851562 132.371094 125.640625 L 131.210938 124.480469 L 134.273438 121.429688 C 134.910156 120.796875 134.910156 119.851562 134.273438 119.21875 C 133.640625 118.585938 132.6875 118.585938 132.054688 119.21875 L 125.183594 125.957031 C 124.550781 126.585938 124.550781 127.535156 125.183594 128.164062 C 125.5 128.480469 125.925781 128.585938 126.347656 128.585938 C 126.769531 128.585938 127.191406 128.480469 127.511719 128.164062 L 128.988281 126.691406 L 130.152344 127.851562 C 130.890625 128.585938 131.84375 128.902344 132.792969 128.902344 C 133.746094 128.902344 134.699219 128.585938 135.332031 127.851562 L 137.023438 126.164062 L 161.4375 154.269531 C 163.871094 156.796875 166.722656 158.902344 169.683594 160.691406 C 172.746094 162.480469 175.917969 163.742188 179.300781 164.691406 C 179.511719 164.796875 179.828125 164.796875 180.039062 164.796875 C 180.78125 164.796875 181.519531 164.480469 182.15625 163.953125 C 182.789062 163.113281 183 161.953125 182.789062 161.007812 Z M 171.054688 157.847656 C 168.308594 156.269531 165.667969 154.269531 163.550781 152.058594 L 139.03125 123.957031 L 142.308594 120.796875 L 170.316406 145.429688 C 174.753906 149.953125 177.925781 155.53125 179.617188 161.53125 C 176.550781 160.585938 173.699219 159.320312 171.054688 157.847656 Z M 128.355469 101.535156 C 127.722656 100.902344 127.722656 99.957031 128.355469 99.324219 L 132.792969 95.007812 C 133.429688 94.378906 134.378906 94.378906 135.015625 95.007812 C 135.648438 95.640625 135.648438 96.589844 135.015625 97.21875 L 130.574219 101.535156 C 130.257812 101.851562 129.835938 101.957031 129.414062 101.957031 C 128.988281 102.0625 128.671875 101.851562 128.355469 101.535156 Z M 136.496094 107.324219 C 136.175781 107.640625 135.753906 107.746094 135.332031 107.746094 C 134.910156 107.746094 134.484375 107.640625 134.167969 107.324219 C 133.535156 106.691406 133.535156 105.746094 134.167969 105.113281 L 138.609375 100.796875 C 139.242188 100.167969 140.195312 100.167969 140.828125 100.796875 C 141.460938 101.429688 141.460938 102.378906 140.828125 103.007812 Z M 128.777344 96.902344 C 128.355469 96.902344 127.933594 96.796875 127.617188 96.484375 C 126.980469 95.851562 126.980469 94.902344 127.617188 94.273438 L 133.21875 88.695312 C 133.851562 88.0625 134.804688 88.0625 135.4375 88.695312 C 136.070312 89.324219 136.070312 90.273438 135.4375 90.902344 L 129.835938 96.484375 C 129.625 96.695312 129.203125 96.902344 128.777344 96.902344 Z M 133.535156 100.0625 L 139.136719 94.484375 C 139.769531 93.851562 140.722656 93.851562 141.355469 94.484375 C 141.992188 95.113281 141.992188 96.0625 141.355469 96.695312 L 135.753906 102.273438 C 135.4375 102.589844 135.015625 102.691406 134.589844 102.691406 C 134.167969 102.691406 133.746094 102.589844 133.429688 102.273438 C 132.902344 101.640625 132.902344 100.589844 133.535156 100.0625 Z M 111.761719 73.640625 L 107.324219 77.957031 C 107.003906 78.273438 106.582031 78.378906 106.160156 78.378906 C 105.738281 78.378906 105.3125 78.273438 104.996094 77.957031 C 104.363281 77.324219 104.363281 76.378906 104.996094 75.746094 L 109.4375 71.429688 C 110.070312 70.800781 111.023438 70.800781 111.65625 71.429688 C 112.394531 72.0625 112.289062 73.117188 111.761719 73.640625 Z M 117.996094 71.011719 C 118.632812 71.640625 118.632812 72.589844 117.996094 73.222656 L 112.394531 78.800781 C 112.078125 79.117188 111.65625 79.21875 111.234375 79.21875 C 110.808594 79.21875 110.386719 79.117188 110.070312 78.800781 C 109.4375 78.167969 109.4375 77.222656 110.070312 76.589844 L 115.671875 71.011719 C 116.414062 70.378906 117.363281 70.378906 117.996094 71.011719 Z M 117.574219 79.535156 L 113.136719 83.851562 C 112.820312 84.167969 112.394531 84.273438 111.972656 84.273438 C 111.550781 84.273438 111.128906 84.167969 110.808594 83.851562 C 110.175781 83.21875 110.175781 82.273438 110.808594 81.640625 L 115.25 77.324219 C 115.882812 76.695312 116.835938 76.695312 117.46875 77.324219 C 118.207031 77.957031 118.207031 78.90625 117.574219 79.535156 Z M 123.8125 76.800781 C 124.445312 77.429688 124.445312 78.378906 123.8125 79.011719 L 118.207031 84.589844 C 117.890625 84.90625 117.46875 85.011719 117.046875 85.011719 C 116.625 85.011719 116.199219 84.90625 115.882812 84.589844 C 115.25 83.957031 115.25 83.011719 115.882812 82.378906 L 121.484375 76.800781 C 122.226562 76.167969 123.175781 76.167969 123.8125 76.800781 Z M 117.890625 90.167969 C 117.46875 90.167969 117.046875 90.0625 116.730469 89.746094 C 116.09375 89.113281 116.09375 88.167969 116.730469 87.535156 L 121.167969 83.21875 C 121.800781 82.589844 122.753906 82.589844 123.386719 83.21875 C 124.023438 83.851562 124.023438 84.800781 123.386719 85.429688 L 118.949219 89.746094 C 118.632812 90.0625 118.207031 90.167969 117.890625 90.167969 Z M 129.625 85.011719 L 124.023438 90.589844 C 123.707031 90.902344 123.28125 91.007812 122.859375 91.007812 C 122.4375 91.007812 122.015625 90.902344 121.695312 90.589844 C 121.0625 89.957031 121.0625 89.007812 121.695312 88.378906 L 127.296875 82.800781 C 127.933594 82.167969 128.882812 82.167969 129.519531 82.800781 C 130.257812 83.324219 130.257812 84.378906 129.625 85.011719 Z M 123.707031 96.0625 C 123.28125 96.0625 122.859375 95.957031 122.542969 95.640625 C 121.910156 95.007812 121.910156 94.0625 122.542969 93.429688 L 126.980469 89.113281 C 127.617188 88.484375 128.566406 88.484375 129.203125 89.113281 C 129.835938 89.746094 129.835938 90.695312 129.203125 91.324219 L 124.761719 95.640625 C 124.445312 95.957031 124.128906 96.0625 123.707031 96.0625 Z M 139.347656 105.851562 L 144.949219 100.273438 C 145.585938 99.640625 146.535156 99.640625 147.167969 100.273438 C 147.804688 100.902344 147.804688 101.851562 147.167969 102.484375 L 141.566406 108.0625 C 141.25 108.378906 140.828125 108.480469 140.40625 108.480469 C 139.980469 108.480469 139.558594 108.378906 139.242188 108.0625 C 138.714844 107.535156 138.714844 106.484375 139.347656 105.851562 Z M 113.347656 114.0625 L 117.785156 109.746094 C 118.421875 109.113281 119.371094 109.113281 120.003906 109.746094 C 120.640625 110.378906 120.640625 111.324219 120.003906 111.957031 L 115.566406 116.273438 C 115.25 116.585938 114.828125 116.691406 114.402344 116.691406 C 113.980469 116.691406 113.558594 116.585938 113.242188 116.273438 C 112.710938 115.640625 112.710938 114.691406 113.347656 114.0625 Z M 119.160156 119.957031 L 123.597656 115.640625 C 124.234375 115.007812 125.183594 115.007812 125.820312 115.640625 C 126.453125 116.273438 126.453125 117.21875 125.820312 117.851562 L 121.378906 122.164062 C 121.0625 122.480469 120.640625 122.585938 120.21875 122.585938 C 119.792969 122.585938 119.371094 122.480469 119.054688 122.164062 C 118.527344 121.640625 118.527344 120.585938 119.160156 119.957031 Z M 106.898438 116.796875 C 106.265625 116.167969 106.265625 115.21875 106.898438 114.585938 L 112.5 109.007812 C 113.136719 108.378906 114.085938 108.378906 114.722656 109.007812 C 115.355469 109.640625 115.355469 110.585938 114.722656 111.21875 L 109.121094 116.796875 C 108.800781 117.113281 108.378906 117.21875 107.957031 117.21875 C 107.640625 117.21875 107.214844 117.113281 106.898438 116.796875 Z M 112.820312 122.691406 C 112.183594 122.0625 112.183594 121.113281 112.820312 120.480469 L 118.421875 114.902344 C 119.054688 114.273438 120.003906 114.273438 120.640625 114.902344 C 121.273438 115.535156 121.273438 116.480469 120.640625 117.113281 L 115.039062 122.691406 C 114.722656 123.007812 114.296875 123.113281 113.875 123.113281 C 113.558594 123.113281 113.136719 122.902344 112.820312 122.691406 Z M 83.648438 93.324219 C 83.011719 92.695312 83.011719 91.746094 83.648438 91.113281 L 88.613281 86.273438 L 87.453125 85.113281 C 86.078125 83.640625 86.078125 81.429688 87.453125 79.957031 L 98.65625 68.90625 C 99.394531 68.273438 100.242188 67.851562 101.191406 67.851562 C 102.144531 67.851562 103.09375 68.273438 103.730469 68.90625 L 104.890625 70.0625 L 109.964844 65.117188 C 110.597656 64.484375 111.550781 64.484375 112.183594 65.117188 C 112.820312 65.746094 112.820312 66.695312 112.183594 67.328125 L 103.304688 76.0625 C 102.988281 76.378906 102.566406 76.484375 102.144531 76.484375 C 101.71875 76.484375 101.296875 76.378906 100.980469 76.0625 C 100.347656 75.429688 100.347656 74.484375 100.980469 73.851562 L 102.671875 72.167969 L 101.507812 71.011719 C 101.402344 70.90625 101.296875 70.90625 101.191406 70.90625 C 101.085938 70.90625 100.980469 70.90625 100.875 71.011719 L 89.671875 82.167969 C 89.460938 82.378906 89.460938 82.589844 89.671875 82.800781 L 90.832031 83.957031 C 91.46875 83.535156 92.3125 83.640625 92.84375 84.167969 C 93.476562 84.800781 93.476562 85.746094 92.84375 86.378906 L 85.867188 93.21875 C 85.550781 93.535156 85.125 93.640625 84.703125 93.640625 C 84.386719 93.746094 83.964844 93.640625 83.648438 93.324219 Z M 96.648438 86.273438 C 97.28125 86.90625 97.28125 87.851562 96.648438 88.484375 L 92.207031 92.800781 C 91.890625 93.113281 91.46875 93.21875 91.046875 93.21875 C 90.621094 93.21875 90.199219 93.113281 89.882812 92.800781 C 89.25 92.167969 89.25 91.21875 89.882812 90.589844 L 94.320312 86.273438 C 94.957031 85.640625 96.011719 85.746094 96.648438 86.273438 Z M 89.460938 99.113281 C 88.824219 98.484375 88.824219 97.535156 89.460938 96.902344 L 95.0625 91.324219 C 95.695312 90.695312 96.648438 90.695312 97.28125 91.324219 C 97.914062 91.957031 97.914062 92.902344 97.28125 93.535156 L 91.679688 99.113281 C 91.363281 99.429688 90.941406 99.535156 90.515625 99.535156 C 90.199219 99.640625 89.777344 99.429688 89.460938 99.113281 Z M 102.460938 92.167969 C 103.09375 92.800781 103.09375 93.746094 102.460938 94.378906 L 98.019531 98.796875 C 97.703125 99.113281 97.28125 99.21875 96.859375 99.21875 C 96.4375 99.21875 96.011719 99.113281 95.695312 98.796875 C 95.0625 98.167969 95.0625 97.21875 95.695312 96.589844 L 100.136719 92.273438 C 100.769531 91.535156 101.828125 91.535156 102.460938 92.167969 Z M 95.273438 105.007812 C 94.640625 104.378906 94.640625 103.429688 95.273438 102.796875 L 100.875 97.21875 C 101.507812 96.589844 102.460938 96.589844 103.09375 97.21875 C 103.730469 97.851562 103.730469 98.796875 103.09375 99.429688 L 97.492188 105.007812 C 97.175781 105.324219 96.753906 105.429688 96.332031 105.429688 C 96.011719 105.429688 95.589844 105.324219 95.273438 105.007812 Z M 101.613281 102.378906 L 106.054688 98.0625 C 106.6875 97.429688 107.640625 97.429688 108.273438 98.0625 C 108.90625 98.695312 108.90625 99.640625 108.273438 100.273438 L 103.835938 104.585938 C 103.515625 104.902344 103.09375 105.007812 102.671875 105.007812 C 102.25 105.007812 101.828125 104.902344 101.507812 104.585938 C 100.980469 103.957031 100.980469 103.007812 101.613281 102.378906 Z M 101.085938 110.902344 C 100.453125 110.273438 100.453125 109.324219 101.085938 108.691406 L 106.6875 103.113281 C 107.324219 102.484375 108.273438 102.484375 108.90625 103.113281 C 109.542969 103.746094 109.542969 104.691406 108.90625 105.324219 L 103.304688 110.902344 C 102.988281 111.21875 102.566406 111.324219 102.144531 111.324219 C 101.828125 111.324219 101.402344 111.21875 101.085938 110.902344 Z M 107.429688 108.273438 L 111.867188 103.957031 C 112.5 103.324219 113.453125 103.324219 114.085938 103.957031 C 114.722656 104.585938 114.722656 105.535156 114.085938 106.167969 L 109.648438 110.480469 C 109.332031 110.796875 108.90625 110.902344 108.484375 110.902344 C 108.0625 110.902344 107.640625 110.796875 107.324219 110.480469 C 106.792969 109.851562 106.792969 108.796875 107.429688 108.273438 Z M 118.632812 128.480469 C 117.996094 127.851562 117.996094 126.902344 118.632812 126.269531 L 124.234375 120.691406 C 124.867188 120.0625 125.820312 120.0625 126.453125 120.691406 C 127.085938 121.324219 127.085938 122.269531 126.453125 122.902344 L 120.851562 128.480469 C 120.535156 128.796875 120.113281 128.902344 119.6875 128.902344 C 119.371094 129.007812 118.949219 128.796875 118.632812 128.480469 Z M 97.175781 81.746094 L 96.011719 83.011719 C 95.695312 83.324219 95.273438 83.429688 94.851562 83.429688 C 94.425781 83.429688 94.003906 83.324219 93.6875 83.011719 C 93.054688 82.378906 93.054688 81.429688 93.6875 80.800781 L 94.957031 79.640625 C 95.589844 79.011719 96.542969 79.011719 97.175781 79.640625 C 97.808594 80.167969 97.808594 81.21875 97.175781 81.746094 Z M 101.71875 82.90625 C 101.296875 82.90625 100.875 82.800781 100.558594 82.484375 C 99.921875 81.851562 99.921875 80.90625 100.558594 80.273438 L 101.828125 79.117188 C 102.460938 78.484375 103.410156 78.484375 104.046875 79.117188 C 104.679688 79.746094 104.679688 80.695312 104.046875 81.324219 L 102.777344 82.484375 C 102.460938 82.800781 102.144531 82.90625 101.71875 82.90625 Z M 106.371094 86.0625 L 107.640625 84.90625 C 108.273438 84.273438 109.226562 84.273438 109.859375 84.90625 C 110.492188 85.535156 110.492188 86.484375 109.859375 87.113281 L 108.589844 88.273438 C 108.273438 88.589844 107.851562 88.695312 107.429688 88.695312 C 107.003906 88.695312 106.582031 88.589844 106.265625 88.273438 C 105.738281 87.640625 105.738281 86.695312 106.371094 86.0625 Z M 112.183594 91.851562 L 113.453125 90.695312 C 114.085938 90.0625 115.039062 90.0625 115.671875 90.695312 C 116.304688 91.324219 116.304688 92.273438 115.671875 92.902344 L 114.402344 94.0625 C 114.191406 94.484375 113.769531 94.589844 113.347656 94.589844 C 112.925781 94.589844 112.5 94.484375 112.183594 94.167969 C 111.550781 93.535156 111.550781 92.484375 112.183594 91.851562 Z M 121.484375 98.796875 L 120.21875 99.957031 C 119.898438 100.273438 119.476562 100.378906 119.054688 100.378906 C 118.632812 100.378906 118.207031 100.273438 117.890625 99.957031 C 117.257812 99.324219 117.257812 98.378906 117.890625 97.746094 L 119.160156 96.589844 C 119.792969 95.957031 120.746094 95.957031 121.378906 96.589844 C 122.121094 97.21875 122.121094 98.167969 121.484375 98.796875 Z M 127.296875 104.691406 L 126.03125 105.851562 C 125.714844 106.167969 125.289062 106.273438 124.867188 106.273438 C 124.445312 106.273438 124.023438 106.167969 123.707031 105.851562 C 123.070312 105.21875 123.070312 104.273438 123.707031 103.640625 L 124.972656 102.484375 C 125.609375 101.851562 126.558594 101.851562 127.191406 102.484375 C 127.933594 103.007812 127.933594 104.0625 127.296875 104.691406 Z M 133.113281 110.480469 L 131.84375 111.640625 C 131.527344 111.957031 131.105469 112.0625 130.679688 112.0625 C 130.257812 112.0625 129.835938 111.957031 129.519531 111.640625 C 128.882812 111.007812 128.882812 110.0625 129.519531 109.429688 L 130.785156 108.273438 C 131.421875 107.640625 132.371094 107.640625 133.007812 108.273438 C 133.746094 108.902344 133.746094 109.957031 133.113281 110.480469 Z M 135.4375 117.535156 C 134.804688 116.902344 134.804688 115.957031 135.4375 115.324219 L 136.707031 114.167969 C 137.339844 113.535156 138.292969 113.535156 138.925781 114.167969 C 139.558594 114.796875 139.558594 115.746094 138.925781 116.375 L 137.65625 117.535156 C 137.339844 117.851562 136.917969 117.957031 136.496094 117.957031 C 136.175781 118.0625 135.753906 117.851562 135.4375 117.535156 Z M 103.199219 87.851562 L 101.933594 89.007812 C 101.613281 89.324219 101.191406 89.429688 100.769531 89.429688 C 100.347656 89.429688 99.921875 89.324219 99.605469 89.007812 C 98.972656 88.378906 98.972656 87.429688 99.605469 86.800781 L 100.875 85.640625 C 101.507812 85.011719 102.460938 85.011719 103.09375 85.640625 C 103.835938 86.167969 103.835938 87.21875 103.199219 87.851562 Z M 109.011719 93.640625 L 107.746094 94.800781 C 107.429688 95.113281 107.003906 95.21875 106.582031 95.21875 C 106.160156 95.21875 105.738281 95.113281 105.417969 94.800781 C 104.785156 94.167969 104.785156 93.21875 105.417969 92.589844 L 106.792969 91.429688 C 107.429688 90.800781 108.378906 90.800781 109.011719 91.429688 C 109.648438 92.0625 109.648438 93.113281 109.011719 93.640625 Z M 114.828125 99.535156 L 113.558594 100.691406 C 113.242188 101.007812 112.820312 101.113281 112.394531 101.113281 C 111.972656 101.113281 111.550781 101.007812 111.234375 100.691406 C 110.597656 100.0625 110.597656 99.113281 111.234375 98.484375 L 112.5 97.324219 C 113.136719 96.695312 114.085938 96.695312 114.722656 97.324219 C 115.460938 97.957031 115.460938 98.902344 114.828125 99.535156 Z M 120.640625 105.429688 L 119.476562 106.585938 C 119.160156 106.902344 118.738281 107.007812 118.316406 107.007812 C 117.890625 107.007812 117.46875 106.902344 117.152344 106.585938 C 116.519531 105.957031 116.519531 105.007812 117.152344 104.378906 L 118.421875 103.21875 C 119.054688 102.589844 120.003906 102.589844 120.640625 103.21875 C 121.273438 103.746094 121.273438 104.796875 120.640625 105.429688 Z M 126.453125 111.21875 L 125.183594 112.378906 C 124.867188 112.691406 124.445312 112.796875 124.023438 112.796875 C 123.597656 112.796875 123.175781 112.691406 122.859375 112.378906 C 122.226562 111.746094 122.226562 110.796875 122.859375 110.167969 L 124.128906 109.007812 C 124.761719 108.378906 125.714844 108.378906 126.347656 109.007812 C 127.085938 109.640625 127.085938 110.585938 126.453125 111.21875 Z M 128.777344 118.269531 C 128.144531 117.640625 128.144531 116.691406 128.777344 116.0625 L 130.046875 114.902344 C 130.679688 114.273438 131.632812 114.273438 132.265625 114.902344 C 132.902344 115.535156 132.902344 116.480469 132.265625 117.113281 L 131 118.269531 C 130.679688 118.585938 130.257812 118.691406 129.835938 118.691406 C 129.519531 118.796875 129.09375 118.585938 128.777344 118.269531 Z M 61.554688 64.484375 C 67.265625 65.011719 73.078125 65.535156 78.574219 67.328125 C 79.417969 67.535156 79.839844 68.484375 79.628906 69.328125 C 79.417969 69.957031 78.785156 70.484375 78.152344 70.484375 C 78.042969 70.484375 77.832031 70.484375 77.726562 70.378906 C 72.546875 68.800781 66.839844 68.273438 61.34375 67.746094 C 58.386719 67.433594 55.320312 67.222656 52.464844 66.695312 C 43.164062 65.222656 36.507812 60.695312 33.757812 53.75 C 33.441406 52.90625 33.863281 51.957031 34.605469 51.644531 C 35.449219 51.328125 36.402344 51.75 36.71875 52.484375 C 39.890625 60.378906 48.238281 62.695312 52.996094 63.433594 C 55.636719 63.957031 58.597656 64.167969 61.554688 64.484375 Z M 80.898438 52.273438 C 76.460938 51.75 71.808594 52.167969 67.371094 52.695312 C 65.890625 52.90625 64.515625 53.011719 63.035156 53.117188 C 60.289062 53.328125 56.800781 53.644531 53.207031 53.644531 C 52.785156 53.644531 52.359375 53.644531 51.832031 53.644531 C 51.515625 53.644531 51.09375 53.644531 50.667969 53.644531 C 45.914062 53.644531 38.726562 53.539062 36.613281 48.0625 C 36.296875 47.222656 36.71875 46.273438 37.457031 45.960938 C 38.304688 45.644531 39.253906 46.0625 39.570312 46.800781 C 40.945312 50.273438 46.863281 50.378906 50.777344 50.378906 C 51.199219 50.378906 51.621094 50.378906 51.9375 50.378906 C 55.847656 50.484375 59.757812 50.167969 62.71875 49.855469 C 64.09375 49.75 65.574219 49.539062 66.945312 49.433594 C 71.597656 48.90625 76.460938 48.378906 81.214844 49.011719 C 83.222656 49.222656 85.019531 49.75 86.710938 50.378906 C 87.558594 50.695312 87.980469 51.644531 87.664062 52.484375 C 87.347656 53.328125 86.394531 53.75 85.65625 53.433594 C 84.175781 52.90625 82.589844 52.589844 80.898438 52.273438 Z M 130.152344 169.320312 C 123.28125 168.902344 116.199219 168.585938 109.648438 166.164062 C 102.355469 163.53125 97.175781 158.585938 95.484375 152.796875 C 94.425781 149.21875 94.425781 145.535156 94.425781 141.535156 C 94.425781 138.164062 94.425781 134.585938 93.6875 131.113281 C 92.417969 125.21875 87.980469 122.164062 83.648438 119.21875 C 83.011719 118.796875 82.378906 118.375 81.746094 117.851562 C 78.363281 115.429688 75.929688 113.007812 75.296875 109.535156 C 74.875 107.429688 75.613281 105.324219 76.355469 103.007812 C 77.199219 100.589844 78.042969 98.167969 77.621094 95.324219 C 77.09375 91.640625 74.34375 88.167969 70.222656 86.167969 C 67.371094 84.800781 64.304688 84.167969 61.34375 83.535156 C 60.710938 83.429688 60.183594 83.324219 59.546875 83.21875 C 51.09375 81.429688 44.539062 78.484375 39.570312 74.484375 C 34.394531 70.167969 31.011719 64.484375 30.375 58.695312 C 30.480469 57.539062 30.695312 56.378906 30.800781 55.328125 C 31.75 49.433594 34.921875 38.167969 44.644531 29.222656 C 57.433594 17.75 72.546875 17.75 78.152344 17.75 C 78.257812 17.75 78.257812 17.75 78.363281 17.75 C 87.242188 17.75 100.769531 20.066406 114.828125 31.117188 C 115.671875 31.75 117.046875 32.90625 118.527344 34.378906 C 126.242188 41.855469 131.316406 52.378906 133.429688 65.535156 C 133.535156 66.273438 134.273438 66.90625 135.015625 66.90625 C 135.121094 66.90625 135.226562 66.90625 135.226562 66.90625 C 136.070312 66.800781 136.707031 65.957031 136.601562 65.117188 C 134.378906 51.222656 128.988281 40.066406 120.746094 32.171875 C 119.054688 30.589844 117.679688 29.433594 116.730469 28.695312 C 116.730469 28.695312 116.625 28.589844 116.625 28.589844 C 101.933594 17.011719 87.558594 14.59375 78.152344 14.59375 C 72.761719 14.59375 56.273438 14.59375 42.742188 26.90625 C 32.492188 36.171875 29.109375 47.855469 27.945312 54.273438 C 22.554688 59.222656 19.59375 65.535156 19.171875 72.90625 C 18.75 79.117188 19.59375 84.0625 21.816406 88.800781 C 22.34375 90.0625 23.082031 91.113281 23.71875 92.273438 C 24.984375 94.378906 26.042969 96.378906 26.359375 98.484375 C 26.675781 100.902344 25.832031 103.535156 24.984375 106.273438 C 23.71875 110.0625 22.449219 113.957031 24.246094 117.746094 C 25.515625 120.375 27.839844 121.957031 30.058594 123.535156 C 31.328125 124.375 32.492188 125.21875 33.441406 126.164062 C 37.140625 129.746094 37.457031 136.375 34.179688 140.269531 C 33.125 141.535156 31.855469 142.480469 30.480469 143.535156 C 29.53125 144.269531 28.578125 145.007812 27.734375 145.847656 C 24.667969 148.691406 23.402344 152.058594 24.140625 155.007812 C 24.351562 155.742188 24.984375 156.269531 25.726562 156.269531 C 25.832031 156.269531 25.9375 156.269531 26.148438 156.269531 C 26.996094 156.058594 27.523438 155.21875 27.3125 154.375 C 26.675781 151.636719 29.214844 149.007812 30.058594 148.269531 C 30.800781 147.535156 31.644531 146.902344 32.597656 146.164062 C 34.074219 145.007812 35.554688 143.953125 36.71875 142.480469 C 41.050781 137.21875 40.628906 128.796875 35.765625 124.0625 C 34.605469 122.902344 33.230469 121.957031 31.960938 121.113281 C 29.953125 119.746094 28.050781 118.480469 27.207031 116.585938 C 25.9375 113.957031 26.886719 110.796875 28.050781 107.429688 C 29.003906 104.484375 29.953125 101.429688 29.53125 98.273438 C 29.214844 95.429688 27.839844 93.113281 26.464844 90.800781 C 25.832031 89.746094 25.199219 88.695312 24.773438 87.640625 C 22.765625 83.113281 22.027344 78.800781 22.34375 73.011719 C 22.660156 67.957031 24.246094 63.433594 27.207031 59.640625 C 26.996094 61.539062 26.996094 63.328125 26.996094 64.273438 C 27.101562 71.957031 34.921875 82.378906 35.976562 83.746094 C 36.402344 84.800781 39.253906 91.851562 34.816406 102.0625 C 34.394531 102.902344 34.394531 103.957031 34.816406 104.796875 C 35.238281 105.640625 35.976562 106.378906 36.929688 106.691406 C 38.515625 107.21875 40.839844 107.746094 43.589844 107.535156 L 44.117188 112.691406 C 44.328125 114.167969 45.171875 115.429688 46.546875 115.957031 L 48.554688 116.796875 L 48.449219 117.324219 C 48.132812 119.21875 49.296875 121.007812 50.988281 121.640625 L 55.847656 123.429688 C 55.953125 123.957031 55.953125 124.480469 56.058594 125.21875 C 56.484375 128.691406 59.441406 131.429688 62.824219 131.429688 C 62.824219 131.429688 62.929688 131.429688 62.929688 131.429688 C 65.574219 131.429688 68.847656 130.902344 74.238281 125.21875 C 75.085938 124.269531 77.832031 122.480469 80.6875 121.007812 C 81.109375 121.324219 81.425781 121.535156 81.851562 121.851562 C 85.867188 124.585938 89.566406 127.21875 90.515625 131.851562 C 91.152344 135.007812 91.152344 138.164062 91.152344 141.640625 C 91.152344 145.636719 91.152344 149.742188 92.3125 153.742188 C 94.320312 160.585938 100.242188 166.269531 108.484375 169.214844 C 115.460938 171.742188 122.753906 172.164062 129.835938 172.585938 C 129.835938 172.585938 129.941406 172.585938 129.941406 172.585938 C 130.785156 172.585938 131.527344 171.953125 131.527344 171.109375 C 131.738281 170.058594 131 169.320312 130.152344 169.320312 Z M 71.914062 123.007812 C 67.050781 128.058594 64.621094 128.164062 62.929688 128.164062 C 61.027344 128.164062 59.441406 126.691406 59.230469 124.796875 C 59.125 123.324219 58.914062 122.0625 58.914062 122.0625 C 58.808594 121.429688 58.492188 121.007812 57.855469 120.796875 L 52.042969 118.691406 C 51.726562 118.585938 51.410156 118.167969 51.515625 117.851562 L 51.726562 116.0625 C 51.832031 115.324219 51.410156 114.585938 50.777344 114.375 L 47.605469 113.113281 C 47.289062 113.007812 47.183594 112.691406 47.078125 112.480469 L 46.335938 105.746094 C 46.335938 105.324219 46.019531 104.902344 45.703125 104.691406 C 45.386719 104.484375 44.960938 104.273438 44.433594 104.378906 C 41.6875 104.796875 39.148438 104.273438 37.667969 103.851562 C 37.5625 103.851562 37.5625 103.746094 37.5625 103.746094 C 37.5625 103.640625 37.5625 103.640625 37.5625 103.535156 C 42.953125 91.324219 38.832031 82.800781 38.621094 82.378906 C 38.621094 82.273438 38.515625 82.167969 38.410156 82.167969 C 38.304688 82.0625 33.863281 76.378906 31.539062 70.484375 C 33.125 72.90625 35.132812 75.117188 37.5625 77.117188 C 42.953125 81.535156 49.929688 84.589844 58.914062 86.589844 C 59.546875 86.695312 60.078125 86.800781 60.710938 87.007812 C 63.566406 87.640625 66.3125 88.167969 68.847656 89.324219 C 72.019531 90.90625 74.132812 93.429688 74.453125 96.0625 C 74.769531 98.0625 74.027344 100.167969 73.289062 102.273438 C 72.441406 104.796875 71.597656 107.429688 72.125 110.378906 C 72.867188 114.273438 75.085938 116.902344 77.832031 119.113281 C 75.402344 120.269531 72.972656 121.957031 71.914062 123.007812 Z M 71.914062 123.007812 " fill-opacity="1" fill-rule="nonzero"/></g></svg>