<svg xmlns="http://www.w3.org/2000/svg" xmlns:xlink="http://www.w3.org/1999/xlink" width="250" zoomAndPan="magnify" viewBox="0 0 187.5 187.499992" height="250" preserveAspectRatio="xMidYMid meet" version="1.0"><defs><clipPath id="f4f4d226c6"><path d="M 16.039062 38.964844 L 171 38.964844 L 171 148.464844 L 16.039062 148.464844 Z M 16.039062 38.964844 " clip-rule="nonzero"/></clipPath></defs><g clip-path="url(#f4f4d226c6)"><path fill="#ffffff" d="M 21.074219 39.015625 C 18.238281 39.273438 16.171875 39.929688 16.847656 40.359375 C 16.921875 40.402344 17.242188 40.390625 17.945312 40.308594 C 23.65625 39.65625 32.890625 41 42.15625 43.832031 C 49.546875 46.089844 54.65625 48.09375 72.667969 55.800781 C 86.160156 61.574219 91.519531 64.6875 101.285156 72.425781 L 103.191406 73.9375 L 103.476562 74.503906 C 104.375 76.300781 105.8125 77.90625 107.6875 79.210938 C 107.9375 79.386719 108.132812 79.535156 108.125 79.542969 C 108.066406 79.597656 105.277344 79.425781 104.96875 79.347656 C 104.34375 79.1875 103.585938 78.785156 102.363281 77.964844 C 101.1875 77.175781 100.757812 76.847656 97.320312 74.128906 C 93.199219 70.867188 90.269531 68.777344 88.691406 67.980469 C 88.453125 67.859375 87.804688 67.488281 87.261719 67.160156 C 84.90625 65.742188 82.625 64.738281 82.160156 64.917969 C 81.765625 65.066406 81.988281 65.308594 83.070312 65.894531 C 89.984375 69.636719 95.148438 74.238281 100.109375 81.078125 C 102.042969 83.742188 106.460938 90.410156 107.59375 92.363281 C 107.980469 93.03125 110.242188 97.171875 110.527344 97.738281 C 110.585938 97.847656 110.503906 97.796875 110.273438 97.574219 C 109.804688 97.128906 105.359375 92.988281 103.835938 91.578125 C 103.144531 90.9375 101.476562 89.410156 100.132812 88.183594 C 98.789062 86.953125 97.304688 85.597656 96.835938 85.171875 C 96.367188 84.742188 95.347656 83.835938 94.570312 83.160156 C 92.972656 81.769531 92.660156 81.464844 90.882812 79.566406 C 88.804688 77.351562 87.773438 76.09375 86.085938 73.71875 C 84.785156 71.894531 84.125 71.03125 83.324219 70.121094 C 80.566406 66.980469 75.4375 63.359375 75.800781 64.8125 C 75.824219 64.894531 76.339844 65.421875 76.988281 66.015625 C 80.554688 69.304688 81.816406 70.644531 83.515625 72.933594 C 84.277344 73.964844 85.785156 76.046875 85.875 76.1875 C 85.898438 76.230469 85.738281 76.132812 85.515625 75.976562 C 80.589844 72.460938 72.960938 67.734375 72.363281 67.824219 C 71.671875 67.925781 72.707031 68.765625 78.761719 72.996094 C 84.851562 77.246094 86.5 78.445312 89.289062 80.628906 C 93 83.53125 96.515625 86.550781 100.003906 89.820312 C 101.234375 90.972656 104.027344 93.546875 108.351562 97.511719 C 109.691406 98.746094 109.78125 98.839844 109.746094 99.003906 C 109.488281 100.175781 111.179688 103.492188 112.644531 104.683594 C 113.046875 105.011719 113.03125 105.019531 112.195312 104.902344 C 110.027344 104.601562 107.003906 103.109375 104.53125 101.117188 C 103.175781 100.027344 97.535156 94.964844 92.808594 90.597656 C 90.050781 88.046875 89.417969 87.695312 83.351562 85.382812 C 79.929688 84.074219 77.394531 82.902344 74.300781 81.199219 C 63.222656 75.097656 59.253906 73.671875 56.183594 74.699219 C 53.710938 75.527344 52.972656 78.339844 54.441406 81.359375 C 56.1875 84.960938 59.089844 87.386719 67.167969 92.003906 C 71.804688 94.652344 73.191406 95.617188 74.347656 97.003906 L 74.617188 97.324219 L 74.332031 97.152344 C 72.074219 95.769531 69.925781 95.488281 68.566406 96.390625 L 68.234375 96.609375 L 66.742188 96.109375 C 64.921875 95.492188 63.941406 95.210938 61.105469 94.476562 C 55.535156 93.042969 53.257812 92.089844 50.378906 89.988281 C 46.542969 87.191406 44.4375 84.617188 40.355469 77.726562 C 36.113281 70.570312 33.855469 67.8125 30.027344 65.109375 C 25.941406 62.222656 20.742188 60.636719 17.699219 61.351562 C 16.171875 61.710938 16.480469 62.039062 18.722656 62.433594 C 22.761719 63.144531 25.808594 64.445312 28.992188 66.820312 C 32.75 69.621094 34.835938 72.265625 38.734375 79.160156 C 42.546875 85.894531 44.738281 88.683594 48.414062 91.460938 C 51.832031 94.042969 54.535156 95.183594 60.839844 96.707031 C 67.554688 98.324219 71.832031 99.753906 74.542969 101.285156 C 76.679688 102.492188 77.519531 102.296875 77.5 100.601562 C 77.480469 98.984375 76 96.476562 73.996094 94.667969 C 72.789062 93.582031 71.753906 92.882812 68.363281 90.886719 C 60.496094 86.253906 57.335938 83.703125 56.496094 81.300781 C 55.054688 77.1875 55.332031 76.210938 57.894531 76.382812 C 61.222656 76.605469 65.007812 78.101562 72.289062 82.078125 C 76.941406 84.621094 78.699219 85.417969 82.878906 86.886719 L 83.539062 87.117188 L 84.476562 88.25 C 85.703125 89.722656 86.054688 90.210938 87.175781 91.972656 C 88.40625 93.90625 89.414062 95.3125 91.347656 97.800781 C 93.171875 100.140625 94.304688 101.714844 95.113281 103.019531 C 95.425781 103.523438 96.023438 104.492188 96.445312 105.171875 C 98.25 108.089844 99.863281 110.089844 101.890625 111.917969 C 102.546875 112.511719 103.382812 113.273438 103.742188 113.613281 C 105.617188 115.355469 106.230469 115.207031 106.222656 113.019531 C 106.21875 111.132812 106.074219 110.707031 104.027344 106.542969 C 103.21875 104.898438 102.472656 103.34375 102.363281 103.085938 C 102.191406 102.667969 101.347656 100.054688 101.375 100.023438 C 101.382812 100.019531 102.019531 100.519531 102.792969 101.132812 C 107.109375 104.582031 110.042969 105.976562 112.976562 105.976562 C 113.683594 105.976562 115.179688 106.234375 116.28125 106.550781 C 117.421875 106.875 118.609375 106.714844 118.851562 106.207031 C 119.183594 105.503906 118.894531 104.976562 117.664062 104.039062 C 116.617188 103.242188 116.445312 103.097656 114.328125 101.25 C 112.050781 99.265625 112.246094 99.53125 111.128906 96.890625 C 109.496094 93.03125 108.566406 91.390625 104.707031 85.527344 C 102.027344 81.457031 100.601562 79.453125 99.003906 77.503906 C 98.207031 76.527344 98.074219 76.347656 98.25 76.496094 C 99.371094 77.4375 100.902344 78.515625 102.386719 79.410156 C 103.933594 80.339844 104.625 80.566406 106.320312 80.699219 C 106.820312 80.738281 107.726562 80.855469 108.332031 80.964844 C 111.046875 81.445312 112.40625 81.105469 112.414062 79.945312 C 112.421875 79.148438 111.195312 77.847656 108.242188 75.519531 C 107.621094 75.03125 105.699219 73.5 103.96875 72.117188 C 93.488281 63.738281 86.363281 59.449219 74.332031 54.277344 C 50.515625 44.039062 38.488281 40.15625 27.230469 39.070312 C 26.320312 38.980469 21.875 38.941406 21.074219 39.015625 M 168.535156 48.359375 C 167.363281 48.578125 165.753906 49.558594 162.148438 52.246094 C 161.039062 53.078125 159.496094 54.222656 158.722656 54.792969 C 155.488281 57.183594 151.511719 60.300781 149.242188 62.222656 C 148.535156 62.824219 146.992188 64.132812 145.816406 65.128906 C 141.257812 69 140.433594 69.929688 140.089844 71.617188 C 139.75 73.265625 140.511719 74.386719 143.195312 76.199219 C 143.9375 76.703125 143.902344 76.613281 143.609375 77.195312 C 142.222656 79.957031 138.960938 84.035156 134.414062 88.707031 C 133.28125 89.867188 132.78125 90.300781 131.074219 91.582031 C 127.96875 93.917969 125.363281 96.65625 125.363281 97.578125 C 125.363281 98.265625 125.847656 98.421875 126.160156 97.832031 C 126.339844 97.5 127.113281 96.570312 127.121094 96.683594 C 127.121094 96.707031 126.976562 96.890625 126.800781 97.089844 C 126.628906 97.292969 126.351562 97.667969 126.195312 97.925781 C 126.035156 98.1875 125.867188 98.445312 125.824219 98.5 C 125.777344 98.554688 125.738281 98.636719 125.738281 98.679688 C 125.738281 98.726562 125.597656 99.042969 125.421875 99.386719 C 125.246094 99.730469 125.113281 100.039062 125.125 100.078125 C 125.136719 100.113281 125.242188 99.964844 125.359375 99.742188 C 125.722656 99.0625 125.957031 98.703125 126.023438 98.722656 C 126.058594 98.734375 126.210938 98.566406 126.367188 98.351562 C 127.144531 97.277344 128.160156 96.089844 128.753906 95.5625 C 128.945312 95.394531 128.769531 95.609375 128.363281 96.039062 C 127.609375 96.839844 127.382812 97.136719 126.613281 98.324219 C 126.058594 99.1875 125.777344 99.683594 125.820312 99.730469 C 125.851562 99.761719 125.972656 99.589844 126.308594 99.039062 C 126.539062 98.660156 126.429688 99.007812 126.1875 99.425781 C 125.828125 100.046875 125.601562 100.515625 125.640625 100.554688 C 125.6875 100.601562 125.660156 100.640625 126.082031 99.878906 C 126.542969 99.042969 127.683594 97.363281 127.789062 97.363281 C 127.804688 97.363281 127.652344 97.609375 127.449219 97.910156 C 126.777344 98.917969 126.230469 99.824219 126.273438 99.863281 C 126.292969 99.886719 126.332031 99.875 126.355469 99.839844 C 126.378906 99.800781 126.535156 99.554688 126.703125 99.289062 C 126.867188 99.023438 127.019531 98.808594 127.039062 98.808594 C 127.054688 98.808594 127.015625 98.898438 126.945312 99.011719 C 126.414062 99.882812 126.027344 100.632812 126.109375 100.632812 C 126.140625 100.632812 126.339844 100.3125 126.554688 99.925781 C 126.980469 99.152344 127.101562 98.988281 127.035156 99.261719 C 127.011719 99.355469 126.824219 99.714844 126.617188 100.058594 C 126.410156 100.398438 126.242188 100.695312 126.242188 100.71875 C 126.242188 100.832031 126.363281 100.726562 126.484375 100.503906 C 126.628906 100.253906 126.710938 100.171875 126.640625 100.347656 C 126.558594 100.566406 126.730469 100.417969 126.902344 100.128906 C 127.199219 99.621094 127.15625 99.820312 126.835938 100.441406 C 126.542969 101.011719 126.480469 101.3125 126.757812 100.824219 C 126.835938 100.683594 126.929688 100.570312 126.964844 100.566406 C 127 100.566406 127.21875 100.226562 127.457031 99.816406 C 128.503906 97.980469 130.675781 94.921875 131.304688 94.40625 C 131.367188 94.355469 131.058594 94.773438 130.625 95.335938 C 129.210938 97.15625 128.222656 98.5625 127.882812 99.234375 C 127.773438 99.453125 127.488281 99.945312 127.246094 100.328125 C 126.691406 101.21875 126.660156 101.421875 127.207031 100.601562 C 127.5625 100.0625 127.578125 100.132812 127.253906 100.828125 C 127.039062 101.28125 126.949219 101.625 127.128906 101.304688 C 127.175781 101.222656 127.21875 101.210938 127.308594 101.257812 C 127.40625 101.3125 127.449219 101.285156 127.566406 101.085938 C 128.175781 100.058594 128.359375 99.949219 127.878906 100.898438 C 127.65625 101.335938 127.679688 101.691406 127.910156 101.355469 C 128.152344 101 128.179688 101.023438 127.976562 101.402344 C 127.757812 101.8125 127.683594 102.046875 127.808594 101.917969 C 127.839844 101.882812 127.980469 101.644531 128.121094 101.386719 C 128.261719 101.125 128.378906 100.945312 128.378906 100.988281 C 128.378906 101.027344 128.308594 101.183594 128.222656 101.332031 C 128.066406 101.609375 128.023438 101.765625 128.113281 101.761719 C 128.136719 101.761719 128.28125 101.550781 128.429688 101.292969 C 128.582031 101.03125 128.726562 100.804688 128.757812 100.789062 C 128.789062 100.769531 128.933594 100.535156 129.078125 100.269531 C 129.34375 99.792969 129.503906 99.707031 129.269531 100.171875 C 129.144531 100.417969 128.195312 101.988281 128.03125 102.222656 C 127.980469 102.296875 127.9375 102.382812 127.9375 102.414062 C 127.9375 102.539062 128.140625 102.285156 128.511719 101.695312 C 128.726562 101.351562 128.914062 101.082031 128.929688 101.097656 C 128.964844 101.132812 128.640625 101.757812 128.464844 101.988281 C 128.304688 102.195312 128.273438 102.300781 128.386719 102.230469 C 128.433594 102.203125 128.429688 102.234375 128.378906 102.328125 C 128.339844 102.402344 128.324219 102.480469 128.34375 102.503906 C 128.390625 102.550781 128.398438 102.542969 128.621094 102.109375 C 128.726562 101.902344 128.882812 101.648438 128.972656 101.542969 L 129.128906 101.355469 L 128.96875 101.761719 C 128.878906 101.988281 128.769531 102.261719 128.730469 102.375 C 128.6875 102.488281 128.632812 102.597656 128.609375 102.621094 C 128.585938 102.644531 128.566406 102.703125 128.566406 102.75 C 128.566406 102.84375 128.976562 102.441406 129.425781 101.914062 C 129.832031 101.433594 130.832031 99.949219 131.261719 99.183594 C 131.660156 98.480469 131.816406 98.324219 131.519531 98.929688 C 131.175781 99.625 130.792969 100.238281 129.882812 101.554688 C 129.042969 102.765625 129.089844 102.675781 129.261719 102.6875 C 129.347656 102.695312 129.488281 102.574219 129.707031 102.292969 C 129.980469 101.945312 130.164062 101.757812 130.046875 101.945312 C 130.027344 101.976562 130.042969 102.015625 130.078125 102.027344 C 130.113281 102.039062 129.980469 102.238281 129.785156 102.472656 C 129.59375 102.707031 129.449219 102.917969 129.472656 102.941406 C 129.492188 102.960938 129.546875 102.9375 129.589844 102.882812 C 129.847656 102.558594 130.472656 101.824219 130.496094 101.824219 C 130.53125 101.824219 130.484375 101.902344 130.191406 102.339844 C 129.621094 103.191406 130.203125 102.742188 130.851562 101.832031 C 131.269531 101.246094 131.539062 100.917969 131.425781 101.132812 C 131.398438 101.1875 131.304688 101.328125 131.214844 101.449219 C 130.992188 101.746094 130.882812 101.960938 130.933594 102.007812 C 130.953125 102.03125 130.984375 102.015625 130.996094 101.980469 C 131.011719 101.9375 131.164062 101.921875 131.386719 101.9375 C 132.5 102.019531 133.109375 101.050781 133.847656 98.023438 C 134.683594 94.582031 135.449219 93.160156 139.375 87.742188 C 142.011719 84.101562 142.824219 83.078125 144.90625 80.792969 C 145.539062 80.101562 146.183594 79.367188 146.339844 79.160156 C 146.496094 78.953125 146.640625 78.761719 146.664062 78.734375 C 146.6875 78.710938 147.140625 79.011719 147.675781 79.410156 C 151.945312 82.574219 153.671875 82.003906 157.070312 76.296875 C 157.957031 74.808594 158.921875 73.257812 160.320312 71.074219 C 161.890625 68.617188 162.789062 67.113281 164.136719 64.699219 C 165.542969 62.171875 166.113281 61.1875 167.65625 58.628906 C 170.515625 53.886719 171.195312 51.785156 170.550781 49.695312 C 170.261719 48.761719 169.410156 48.195312 168.535156 48.359375 M 168.554688 50.753906 C 168.402344 52.355469 167.394531 55.390625 166.25 57.6875 C 165.855469 58.480469 162.71875 63.960938 161.710938 65.617188 C 160.964844 66.847656 160.324219 67.839844 158.621094 70.402344 C 157.289062 72.410156 156.703125 73.355469 154.914062 76.394531 C 152.71875 80.125 152.074219 80.210938 148.742188 77.210938 C 147.066406 75.707031 146.355469 75.152344 143.96875 73.496094 C 142.433594 72.429688 142.300781 72.09375 143.011719 71.007812 C 143.453125 70.335938 144.039062 69.765625 145.316406 68.785156 C 150.042969 65.144531 151.5625 63.902344 156.25 59.828125 C 163.050781 53.917969 165.242188 52.199219 167.6875 50.839844 C 168.542969 50.363281 168.59375 50.359375 168.554688 50.753906 M 167.582031 53.039062 C 167.320312 53.433594 166.191406 55.074219 165.078125 56.679688 C 158.628906 66.003906 155.277344 71.464844 155.277344 72.65625 C 155.277344 74.125 165.914062 57.609375 167.75 53.296875 C 168.207031 52.214844 168.171875 52.160156 167.582031 53.039062 M 159.917969 60.941406 C 159.074219 61.855469 156.507812 65.421875 155.175781 67.539062 C 153.15625 70.742188 152.707031 71.367188 151.226562 73.058594 C 149.375 75.171875 149.875 75.046875 152.007812 72.863281 C 153.183594 71.664062 153.699219 70.984375 155.261719 68.59375 C 155.917969 67.59375 156.824219 66.234375 157.277344 65.578125 C 159.707031 62.042969 160.429688 60.929688 160.429688 60.710938 C 160.429688 60.488281 160.269531 60.5625 159.917969 60.941406 M 152.292969 67.253906 C 151.324219 67.765625 149.613281 69.375 147.664062 71.621094 C 145.835938 73.722656 145.816406 74.140625 147.617188 72.589844 C 148.308594 71.992188 152.402344 67.855469 152.695312 67.453125 C 152.941406 67.117188 152.742188 67.019531 152.292969 67.253906 M 145.261719 77.636719 C 145.671875 77.929688 146.070312 78.222656 146.148438 78.285156 L 146.289062 78.40625 L 145.648438 78.90625 C 143.449219 80.636719 139.761719 85.171875 136.585938 90.046875 L 136.085938 90.8125 L 135.96875 90.660156 C 135.902344 90.578125 135.800781 90.507812 135.742188 90.507812 C 135.363281 90.503906 134.953125 90.214844 134.886719 89.898438 C 134.847656 89.710938 134.890625 89.644531 135.671875 88.769531 C 139.835938 84.105469 143.316406 79.476562 144.191406 77.441406 C 144.390625 76.976562 144.3125 76.960938 145.261719 77.636719 M 87.613281 88.628906 C 89.273438 89.347656 89.769531 89.710938 92.589844 92.300781 C 94.433594 93.996094 95.832031 95.238281 97.804688 96.949219 C 98.636719 97.667969 99.332031 98.289062 99.355469 98.328125 C 99.375 98.367188 99.734375 99.347656 100.148438 100.503906 C 101.105469 103.183594 101.167969 103.34375 101.949219 104.96875 L 102.597656 106.320312 L 102.457031 106.605469 C 102.050781 107.417969 102.085938 108.550781 102.570312 110.078125 C 102.691406 110.449219 102.769531 110.753906 102.753906 110.753906 C 102.734375 110.753906 102.503906 110.59375 102.242188 110.398438 C 100.398438 109.019531 98.261719 106.199219 96.199219 102.421875 C 95.066406 100.347656 94.210938 99.117188 91.589844 95.820312 C 90.28125 94.171875 89.8125 93.46875 88.882812 91.765625 C 88.476562 91.023438 87.886719 90.019531 87.566406 89.535156 C 87.25 89.050781 86.933594 88.570312 86.871094 88.472656 L 86.75 88.289062 L 86.90625 88.339844 C 86.988281 88.367188 87.308594 88.496094 87.613281 88.628906 M 132.277344 92.222656 C 132.277344 92.234375 132.140625 92.347656 131.976562 92.480469 L 131.679688 92.71875 L 131.953125 92.460938 C 132.207031 92.226562 132.277344 92.175781 132.277344 92.222656 M 133.066406 92.554688 C 133.003906 92.644531 132.941406 92.707031 132.925781 92.6875 C 132.90625 92.671875 132.941406 92.582031 133 92.492188 C 133.0625 92.402344 133.125 92.339844 133.140625 92.359375 C 133.15625 92.375 133.125 92.464844 133.066406 92.554688 M 133.039062 92.972656 C 132.96875 93.085938 132.792969 93.292969 132.644531 93.433594 L 132.378906 93.683594 L 132.65625 93.351562 C 132.808594 93.167969 132.976562 92.949219 133.027344 92.867188 C 133.078125 92.785156 133.132812 92.726562 133.144531 92.742188 C 133.160156 92.753906 133.113281 92.859375 133.039062 92.972656 M 132.574219 93.203125 C 132.394531 93.441406 131.910156 94.066406 131.5 94.59375 C 130.082031 96.414062 128.765625 98.34375 128.097656 99.578125 C 127.9375 99.878906 127.789062 100.128906 127.769531 100.128906 C 127.730469 100.128906 128.242188 99.175781 128.617188 98.558594 C 129.566406 96.984375 131.371094 94.484375 132.511719 93.164062 C 132.960938 92.644531 132.988281 92.664062 132.574219 93.203125 M 133.1875 93.320312 C 132.859375 93.925781 132.785156 93.964844 133.070312 93.386719 C 133.199219 93.117188 133.332031 92.898438 133.363281 92.898438 C 133.394531 92.898438 133.3125 93.089844 133.1875 93.320312 M 131.519531 93.121094 C 131.472656 93.175781 131.378906 93.246094 131.304688 93.28125 C 131.226562 93.320312 131.246094 93.285156 131.363281 93.183594 C 131.578125 93.003906 131.636719 92.976562 131.519531 93.121094 M 131.835938 93.230469 C 131.835938 93.238281 131.546875 93.527344 131.195312 93.875 C 130.84375 94.21875 130.648438 94.386719 130.761719 94.25 C 131.003906 93.945312 131.835938 93.160156 131.835938 93.230469 M 133.394531 93.855469 C 133.316406 94.042969 133.15625 94.308594 133.046875 94.441406 C 132.863281 94.664062 132.871094 94.640625 133.125 94.1875 C 133.28125 93.910156 133.425781 93.632812 133.445312 93.570312 C 133.464844 93.507812 133.492188 93.46875 133.511719 93.484375 C 133.527344 93.5 133.476562 93.667969 133.394531 93.855469 M 133.800781 93.839844 C 133.78125 93.890625 133.734375 93.964844 133.695312 93.996094 C 133.65625 94.03125 133.546875 94.15625 133.453125 94.269531 C 133.242188 94.523438 133.242188 94.511719 133.425781 94.085938 C 133.507812 93.898438 133.59375 93.691406 133.617188 93.625 C 133.675781 93.472656 133.855469 93.679688 133.800781 93.839844 M 130.296875 94.25 C 130.019531 94.507812 129.707031 94.765625 129.605469 94.816406 C 129.414062 94.914062 129.957031 94.398438 130.480469 93.984375 C 130.898438 93.65625 130.832031 93.753906 130.296875 94.25 M 133.992188 93.90625 C 133.972656 93.972656 133.925781 94.050781 133.890625 94.070312 C 133.851562 94.097656 133.839844 94.070312 133.867188 94.003906 C 133.890625 93.941406 133.910156 93.867188 133.910156 93.835938 C 133.910156 93.804688 133.933594 93.777344 133.964844 93.777344 C 133.996094 93.777344 134.007812 93.835938 133.992188 93.90625 M 132.410156 94.078125 C 132.1875 94.484375 130.21875 97.242188 130 97.457031 C 129.824219 97.625 130.859375 96.113281 131.792969 94.832031 C 132.386719 94.019531 132.546875 93.820312 132.410156 94.078125 M 134.21875 94.171875 C 134.074219 94.441406 133.644531 95.160156 133.621094 95.160156 C 133.570312 95.160156 133.859375 94.566406 134.035156 94.308594 C 134.242188 94.011719 134.339844 93.9375 134.21875 94.171875 M 133.589844 94.414062 C 133.519531 94.546875 132.960938 95.296875 132.824219 95.445312 C 132.679688 95.597656 133.148438 94.839844 133.375 94.550781 C 133.636719 94.222656 133.726562 94.164062 133.589844 94.414062 M 132.902344 94.914062 C 132.863281 94.984375 132.535156 95.445312 132.171875 95.9375 C 131.804688 96.425781 131.195312 97.292969 130.816406 97.863281 C 130.082031 98.960938 129.976562 99.105469 130.050781 98.90625 C 130.152344 98.644531 129.941406 98.894531 129.757812 99.253906 C 129.65625 99.457031 129.539062 99.625 129.503906 99.625 C 129.414062 99.625 129.617188 99.296875 130.285156 98.367188 C 130.597656 97.9375 131.132812 97.1875 131.480469 96.703125 C 132.441406 95.351562 133.128906 94.484375 132.902344 94.914062 M 129.742188 95.683594 C 129.457031 96.039062 129.160156 96.414062 129.078125 96.515625 C 128.886719 96.765625 128.976562 96.59375 129.269531 96.15625 C 129.480469 95.84375 130.175781 95.035156 130.238281 95.035156 C 130.25 95.035156 130.027344 95.328125 129.742188 95.683594 M 133.148438 95.332031 C 132.949219 95.660156 130.761719 98.949219 130.691406 99.027344 C 130.273438 99.488281 131.8125 97.011719 132.632812 95.902344 C 133.230469 95.097656 133.417969 94.890625 133.148438 95.332031 M 131.171875 95.492188 C 130.894531 95.878906 130.679688 96.109375 130.894531 95.789062 C 131.125 95.449219 131.34375 95.160156 131.378906 95.160156 C 131.394531 95.160156 131.300781 95.308594 131.171875 95.492188 M 129.5625 95.511719 C 129.34375 95.816406 129.269531 95.886719 129.21875 95.832031 C 129.1875 95.800781 129.683594 95.222656 129.742188 95.222656 C 129.757812 95.222656 129.675781 95.355469 129.5625 95.511719 M 132.023438 95.726562 C 131.949219 95.832031 131.875 95.914062 131.859375 95.914062 C 131.839844 95.914062 131.886719 95.832031 131.960938 95.726562 C 132.035156 95.625 132.109375 95.539062 132.125 95.539062 C 132.144531 95.539062 132.097656 95.625 132.023438 95.726562 M 133.238281 96.214844 C 133.070312 96.589844 132.101562 98.242188 132.050781 98.242188 C 132.007812 98.242188 132.6875 96.972656 133.046875 96.371094 C 133.417969 95.757812 133.457031 95.726562 133.238281 96.214844 M 127.875 96.183594 C 127.875 96.195312 127.699219 96.371094 127.484375 96.578125 L 127.089844 96.953125 L 127.464844 96.558594 C 127.816406 96.195312 127.875 96.136719 127.875 96.183594 M 133.300781 96.679688 C 133.175781 96.945312 133.105469 97.042969 133.078125 96.976562 C 133.042969 96.878906 133.394531 96.195312 133.453125 96.253906 C 133.46875 96.273438 133.402344 96.464844 133.300781 96.679688 M 132.613281 96.496094 C 132.480469 96.722656 132.078125 97.300781 132.050781 97.300781 C 132.035156 97.300781 132.15625 97.101562 132.316406 96.859375 C 132.476562 96.617188 132.621094 96.417969 132.632812 96.417969 C 132.648438 96.417969 132.640625 96.453125 132.613281 96.496094 M 128.25 97.40625 C 128.078125 97.671875 127.789062 98.136719 127.613281 98.441406 C 127.269531 99.039062 127.1875 99.136719 127.34375 98.761719 C 127.535156 98.304688 128.429688 96.921875 128.535156 96.921875 C 128.550781 96.921875 128.421875 97.140625 128.25 97.40625 M 126.832031 97.332031 C 126.667969 97.519531 126.519531 97.675781 126.503906 97.675781 C 126.472656 97.675781 126.617188 97.492188 126.898438 97.1875 C 127.199219 96.859375 127.15625 96.957031 126.832031 97.332031 M 132.839844 97.550781 C 132.738281 97.746094 132.695312 97.664062 132.789062 97.457031 C 132.832031 97.363281 132.878906 97.316406 132.890625 97.351562 C 132.902344 97.386719 132.878906 97.476562 132.839844 97.550781 M 132.914062 98.078125 C 132.808594 98.433594 132.253906 99.5 132.175781 99.5 C 132.160156 99.5 132.242188 99.308594 132.359375 99.074219 C 132.472656 98.84375 132.660156 98.417969 132.777344 98.128906 C 133.019531 97.515625 133.089844 97.492188 132.914062 98.078125 M 129.761719 98.117188 C 129.6875 98.21875 129.613281 98.304688 129.597656 98.304688 C 129.578125 98.304688 129.625 98.21875 129.699219 98.117188 C 129.773438 98.011719 129.847656 97.925781 129.863281 97.925781 C 129.882812 97.925781 129.835938 98.011719 129.761719 98.117188 M 132.074219 98.605469 C 131.589844 99.527344 130.824219 100.699219 131.03125 100.207031 C 131.105469 100.03125 132.347656 97.992188 132.382812 97.992188 C 132.390625 97.992188 132.253906 98.265625 132.074219 98.605469 M 129.15625 98.996094 C 128.996094 99.238281 128.851562 99.4375 128.835938 99.4375 C 128.804688 99.4375 128.851562 99.359375 129.144531 98.917969 C 129.28125 98.71875 129.402344 98.558594 129.417969 98.558594 C 129.433594 98.558594 129.316406 98.753906 129.15625 98.996094 M 131.886719 99.421875 C 131.65625 99.839844 131.648438 99.855469 131.648438 99.777344 C 131.648438 99.703125 132.015625 99.058594 132.058594 99.058594 C 132.074219 99.058594 131.996094 99.222656 131.886719 99.421875 M 132.144531 100.328125 C 132.070312 100.476562 131.894531 100.761719 131.753906 100.960938 C 131.488281 101.34375 131.355469 101.464844 131.578125 101.117188 C 131.652344 101.007812 131.832031 100.710938 131.972656 100.460938 C 132.257812 99.96875 132.371094 99.878906 132.144531 100.328125 M 144.308594 100.507812 C 141.269531 100.730469 139.585938 102.15625 140.9375 103.359375 C 141.132812 103.535156 141.113281 103.566406 140.679688 103.765625 C 139.652344 104.234375 139.296875 105.234375 139.917969 105.917969 C 140.054688 106.070312 139.957031 106.304688 139.402344 107.144531 C 139.023438 107.722656 138.796875 107.894531 138.082031 108.15625 C 136.628906 108.683594 136.085938 109.289062 135.703125 110.808594 C 135.40625 111.992188 134.980469 114.832031 134.695312 117.578125 C 134.503906 119.40625 134.210938 121.507812 133.882812 123.425781 C 133.683594 124.566406 133.5 125.726562 133.34375 126.820312 C 133.015625 129.105469 132.703125 130.773438 132.257812 132.636719 C 132.171875 133 131.984375 133.789062 131.839844 134.394531 C 131.59375 135.441406 131.359375 136.351562 131.175781 136.972656 C 130.40625 139.605469 130.199219 143.097656 130.746094 144.25 C 130.925781 144.628906 132.105469 145.5 133.230469 146.082031 C 135.777344 147.402344 138.589844 147.910156 145.199219 148.234375 C 149.703125 148.457031 155.636719 147.738281 159.675781 146.484375 C 162.671875 145.554688 163.054688 144.082031 161.566406 139.175781 C 160.984375 137.253906 160.761719 136.140625 160.558594 134.144531 C 160.269531 131.347656 160.152344 130.507812 159.707031 128.171875 C 159.425781 126.683594 159.027344 124.386719 158.789062 122.859375 C 158.609375 121.710938 158.332031 120.199219 158.128906 119.273438 C 157.183594 114.976562 156.972656 113.839844 156.816406 112.167969 C 156.570312 109.546875 156.203125 109.078125 153.484375 107.894531 C 153.382812 107.847656 152.957031 107.699219 152.542969 107.558594 C 152.128906 107.421875 151.710938 107.277344 151.617188 107.242188 L 151.445312 107.175781 L 151.601562 106.945312 C 152.039062 106.296875 151.59375 105.167969 150.632812 104.5 L 150.371094 104.320312 L 150.609375 104.214844 C 151.472656 103.820312 151.523438 102.796875 150.722656 101.996094 C 149.957031 101.230469 148.273438 100.695312 146.039062 100.503906 C 145.296875 100.441406 145.195312 100.441406 144.308594 100.507812 M 130.613281 100.878906 C 130.558594 100.980469 130.480469 101.085938 130.4375 101.113281 C 130.386719 101.144531 130.394531 101.101562 130.457031 101.007812 C 130.511719 100.921875 130.578125 100.816406 130.601562 100.773438 C 130.695312 100.613281 130.703125 100.699219 130.613281 100.878906 M 129.980469 100.929688 C 129.925781 101.023438 129.792969 101.203125 129.6875 101.324219 C 129.570312 101.464844 129.597656 101.398438 129.769531 101.148438 C 130.046875 100.746094 130.160156 100.625 129.980469 100.929688 M 130.835938 101.179688 C 130.800781 101.242188 130.699219 101.375 130.609375 101.480469 C 130.46875 101.640625 130.472656 101.625 130.640625 101.371094 C 130.828125 101.085938 130.964844 100.953125 130.835938 101.179688 M 129.765625 102.03125 C 129.570312 102.300781 129.257812 102.671875 129.328125 102.550781 C 129.417969 102.390625 129.894531 101.761719 129.925781 101.761719 C 129.941406 101.761719 129.871094 101.882812 129.765625 102.03125 M 147.464844 101.953125 C 151.285156 102.441406 150.789062 103.488281 146.699219 103.570312 C 145.277344 103.597656 144.949219 103.574219 143.714844 103.367188 C 142.660156 103.191406 141.578125 102.761719 141.578125 102.519531 C 141.578125 102.335938 142.417969 102.058594 143.273438 101.957031 C 144.71875 101.789062 146.171875 101.789062 147.464844 101.953125 M 144.625 104.410156 C 145.140625 104.484375 146.597656 104.667969 147.796875 104.808594 C 149.4375 105 149.953125 105.160156 150.328125 105.609375 C 151.171875 106.613281 148.003906 107.738281 145.765625 107.226562 C 141.914062 106.347656 140.574219 105.589844 141.375 104.734375 C 141.550781 104.542969 141.550781 104.542969 142.582031 104.382812 C 142.910156 104.332031 144.203125 104.347656 144.625 104.410156 M 141.953125 107.261719 C 143.957031 108.289062 146.660156 108.589844 149.171875 108.070312 C 150.257812 107.847656 150.460938 107.898438 152.109375 108.8125 C 155.265625 110.570312 155.78125 111.539062 156.28125 116.632812 C 156.402344 117.867188 156.941406 121.429688 157.128906 122.238281 C 157.269531 122.84375 157.636719 124.921875 157.824219 126.195312 C 157.976562 127.230469 158.199219 128.1875 158.832031 130.496094 L 159.136719 131.597656 L 159.117188 132.980469 C 159.066406 136.792969 159.0625 136.695312 159.253906 137.394531 C 159.679688 138.984375 159.523438 139.90625 158.472656 142.003906 C 157.058594 144.832031 155.96875 145.449219 151.914062 145.710938 C 151.277344 145.753906 150.578125 145.847656 150.011719 145.964844 C 148.308594 146.316406 147.550781 146.335938 145.753906 146.0625 C 145.410156 146.007812 144.773438 145.949219 144.339844 145.929688 C 143.910156 145.90625 143.316406 145.847656 143.023438 145.796875 C 142.726562 145.746094 141.792969 145.679688 140.949219 145.648438 C 139.070312 145.582031 138.78125 145.515625 137.742188 144.929688 C 135.578125 143.703125 133.738281 141.828125 133.121094 140.210938 C 132.660156 139 132.644531 138.917969 132.714844 138.183594 C 132.808594 137.253906 133.046875 136.015625 133.246094 135.433594 C 133.921875 133.476562 134.1875 132.324219 134.285156 130.96875 C 134.425781 128.9375 134.535156 128.332031 135.046875 126.730469 C 135.683594 124.746094 135.839844 123.769531 135.921875 121.382812 C 135.96875 119.925781 136.117188 118.566406 136.273438 118.175781 C 136.542969 117.492188 136.828125 115.589844 136.921875 113.832031 C 137.03125 111.769531 137.46875 110.910156 139.472656 108.796875 C 140.355469 107.867188 140.886719 107.097656 140.886719 106.753906 C 140.886719 106.691406 140.980469 106.722656 141.214844 106.859375 C 141.394531 106.964844 141.730469 107.144531 141.953125 107.261719 M 141.035156 109.542969 C 139.574219 111.0625 139.183594 112.648438 139.9375 113.988281 C 140.035156 114.164062 140.152344 114.421875 140.195312 114.558594 C 140.238281 114.695312 140.34375 114.949219 140.421875 115.125 C 140.621094 115.550781 140.609375 115.695312 140.402344 115.34375 C 140.050781 114.746094 139.449219 114.039062 138.828125 113.492188 C 137.875 112.648438 137.714844 113.105469 138.339844 114.863281 C 138.824219 116.214844 139.546875 117.105469 140.160156 117.105469 C 140.65625 117.105469 140.828125 117.902344 140.816406 120.089844 C 140.8125 120.761719 140.808594 120.773438 140.730469 120.496094 C 140.519531 119.730469 139.714844 118.710938 138.460938 117.625 C 137.09375 116.441406 136.988281 116.664062 137.792969 118.992188 C 138.398438 120.75 139.539062 121.988281 140.359375 121.78125 C 140.703125 121.695312 140.867188 122.257812 140.945312 123.800781 C 140.980469 124.5625 141.027344 125.382812 141.046875 125.625 L 141.082031 126.066406 L 140.933594 125.714844 C 140.398438 124.460938 137.429688 121.570312 136.679688 121.570312 C 136.367188 121.570312 136.414062 121.738281 137.339844 123.933594 C 138.089844 125.71875 139.074219 126.796875 140.523438 127.421875 C 141.019531 127.636719 141.4375 128.152344 141.542969 128.675781 C 141.734375 129.613281 142.335938 131.28125 142.867188 132.351562 C 143.261719 133.152344 143.269531 133.230469 142.921875 133.019531 C 142.75 132.914062 142.722656 132.855469 142.691406 132.542969 C 142.585938 131.554688 141.367188 130.453125 139.15625 129.355469 C 136.660156 128.117188 136.554688 128.386719 138.425781 131.21875 C 139.601562 132.992188 141.226562 133.996094 142.398438 133.667969 L 142.757812 133.566406 L 143.261719 133.765625 C 143.730469 133.953125 143.785156 133.996094 144.035156 134.355469 C 144.652344 135.253906 145.664062 136.371094 146.457031 137.039062 L 147.035156 137.527344 L 146.488281 137.492188 C 145.988281 137.460938 145.921875 137.441406 145.691406 137.25 C 144.808594 136.53125 143.40625 136.261719 140.117188 136.175781 C 138.328125 136.132812 138.246094 136.148438 138.246094 136.53125 C 138.246094 136.964844 140.425781 138.417969 141.738281 138.863281 C 143.367188 139.414062 145.316406 139.15625 146.050781 138.296875 C 146.300781 138.007812 146.316406 138.007812 147.082031 138.140625 C 148.097656 138.316406 150.007812 139.140625 150.941406 139.804688 C 151.164062 139.964844 151.828125 140.421875 152.417969 140.820312 C 153.003906 141.21875 153.585938 141.613281 153.707031 141.695312 C 153.828125 141.78125 154.101562 141.980469 154.3125 142.144531 C 155.027344 142.695312 155.191406 142.679688 155.496094 142.023438 C 156.050781 140.820312 155.398438 140.058594 153.484375 139.679688 C 153.277344 139.636719 152.910156 139.550781 152.667969 139.488281 C 152.425781 139.425781 152.128906 139.355469 152.007812 139.332031 C 151.082031 139.160156 150.355469 138.144531 150.769531 137.59375 C 151.585938 136.5 151.78125 134.53125 151.265625 132.578125 C 150.90625 131.210938 150.796875 131.195312 150.019531 132.375 C 148.546875 134.613281 148.417969 136.449219 149.644531 137.679688 C 149.882812 137.921875 150.105469 138.332031 150.03125 138.40625 C 149.957031 138.484375 148.242188 137.378906 147.496094 136.769531 C 145.992188 135.546875 145.746094 135.1875 145.5 133.863281 L 145.398438 133.300781 L 145.578125 133.136719 C 146.585938 132.238281 146.988281 129.917969 146.632812 127.039062 C 146.566406 126.484375 146.539062 125.941406 146.558594 125.46875 C 146.578125 125.070312 146.578125 124.710938 146.558594 124.664062 C 146.507812 124.53125 146.175781 124.574219 146.074219 124.730469 C 143.957031 128.007812 143.414062 131.582031 144.773438 133.289062 C 144.921875 133.472656 144.96875 133.597656 144.96875 133.792969 L 144.964844 134.050781 L 144.617188 133.515625 C 143.652344 132.039062 142.867188 130.023438 142.457031 127.953125 C 142.117188 126.234375 142.113281 126.171875 142.3125 125.363281 L 142.484375 124.65625 L 142.734375 124.613281 C 143.402344 124.503906 144.203125 123.875 144.894531 122.921875 C 145.230469 122.457031 145.824219 121.269531 146.359375 119.996094 C 146.90625 118.683594 146.785156 118.304688 145.988281 118.84375 C 143.863281 120.28125 143.050781 121.109375 142.613281 122.292969 C 142.550781 122.464844 142.476562 122.636719 142.453125 122.667969 C 142.355469 122.816406 142.269531 123.359375 142.269531 123.847656 C 142.269531 124.238281 142.238281 124.433594 142.148438 124.605469 L 142.03125 124.835938 L 141.988281 123.753906 C 141.96875 123.15625 141.921875 122.023438 141.882812 121.230469 L 141.816406 119.792969 L 141.996094 119.335938 L 142.171875 118.878906 L 142.519531 118.78125 C 143.527344 118.496094 144.390625 117.304688 145.089844 115.226562 C 145.59375 113.726562 145.523438 113.527344 144.664062 114.003906 C 142.710938 115.085938 141.800781 116.269531 141.707031 117.851562 L 141.671875 118.4375 L 141.519531 117.632812 C 141.4375 117.1875 141.300781 116.484375 141.214844 116.066406 C 140.972656 114.902344 140.976562 114.867188 141.414062 114.398438 C 142.210938 113.535156 142.316406 112.949219 142.050781 110.847656 C 141.828125 109.089844 141.667969 108.886719 141.035156 109.542969 M 141.507812 110.425781 C 141.550781 110.625 141.617188 110.976562 141.65625 111.207031 L 141.722656 111.628906 L 141.46875 111.90625 C 141.324219 112.0625 141.164062 112.273438 141.109375 112.382812 C 140.980469 112.632812 140.886719 112.632812 140.886719 112.382812 C 140.886719 112.277344 140.8125 111.980469 140.726562 111.722656 C 140.570312 111.253906 140.570312 111.253906 140.691406 111.019531 C 140.832031 110.742188 141.328125 110.0625 141.386719 110.0625 C 141.410156 110.0625 141.464844 110.226562 141.507812 110.425781 M 140.542969 112.214844 C 140.679688 112.671875 140.6875 113.085938 140.558594 113.609375 L 140.46875 113.984375 L 140.363281 113.484375 C 140.21875 112.785156 140.226562 111.824219 140.375 111.824219 C 140.402344 111.824219 140.476562 112 140.542969 112.214844 M 141.699219 112.3125 C 141.699219 112.78125 141.152344 113.960938 140.941406 113.960938 C 140.777344 113.960938 141.039062 113.085938 141.394531 112.429688 C 141.617188 112.015625 141.703125 111.984375 141.699219 112.3125 M 139.441406 115.03125 C 139.558594 115.457031 139.53125 115.5 139.253906 115.300781 C 139.117188 115.203125 138.976562 115.066406 138.941406 115 C 138.851562 114.828125 138.621094 114.148438 138.625 114.0625 C 138.632812 113.925781 139.382812 114.816406 139.441406 115.03125 M 145 114.355469 C 144.976562 114.464844 144.9375 114.585938 144.910156 114.621094 C 144.886719 114.65625 144.832031 114.8125 144.789062 114.96875 C 144.558594 115.816406 144.390625 116.136719 144.105469 116.253906 C 143.953125 116.316406 143.675781 116.492188 143.488281 116.644531 C 143.207031 116.875 142.988281 116.910156 143.207031 116.695312 C 143.238281 116.660156 143.351562 116.28125 143.457031 115.847656 C 143.667969 114.976562 143.597656 115.070312 144.460938 114.484375 C 145.027344 114.09375 145.054688 114.089844 145 114.355469 M 140.0625 115.886719 C 140.167969 116.097656 140.257812 116.308594 140.257812 116.355469 C 140.257812 116.480469 139.984375 116.054688 139.859375 115.734375 C 139.660156 115.226562 139.769531 115.308594 140.0625 115.886719 M 143.054688 116.050781 C 142.996094 116.265625 142.925781 116.472656 142.898438 116.507812 C 142.871094 116.542969 142.8125 116.683594 142.769531 116.820312 C 142.679688 117.117188 142.152344 118.222656 142.082031 118.265625 C 141.789062 118.445312 142.417969 116.613281 142.882812 115.925781 C 143.160156 115.519531 143.195312 115.542969 143.054688 116.050781 M 139.714844 116.101562 C 139.910156 116.3125 140.097656 116.539062 140.136719 116.609375 C 140.308594 116.9375 139.78125 116.457031 139.417969 115.957031 C 139.152344 115.59375 139.324219 115.675781 139.714844 116.101562 M 144.105469 116.710938 C 143.902344 117.242188 142.519531 118.546875 142.519531 118.207031 C 142.519531 118.113281 143.058594 117.550781 143.644531 117.027344 C 144.179688 116.550781 144.164062 116.5625 144.105469 116.710938 M 138.613281 118.214844 C 139.164062 118.738281 139.269531 118.867188 139.285156 119.054688 C 139.300781 119.175781 139.324219 119.410156 139.34375 119.574219 C 139.386719 119.914062 139.355469 119.933594 139.128906 119.71875 C 139.039062 119.632812 138.84375 119.496094 138.695312 119.417969 C 138.402344 119.261719 138.332031 119.136719 137.929688 118 C 137.703125 117.359375 137.71875 117.363281 138.613281 118.214844 M 141.78125 118.671875 C 141.796875 118.734375 141.789062 118.828125 141.757812 118.875 C 141.722656 118.933594 141.703125 118.894531 141.703125 118.753906 C 141.703125 118.527344 141.734375 118.492188 141.78125 118.671875 M 140.152344 120.300781 C 140.234375 120.496094 140.320312 120.742188 140.34375 120.847656 L 140.390625 121.03125 L 140.273438 120.875 C 140.207031 120.792969 140.117188 120.621094 140.070312 120.5 C 140.023438 120.378906 139.964844 120.253906 139.9375 120.21875 C 139.878906 120.136719 139.628906 119.480469 139.628906 119.402344 C 139.628906 119.292969 140.007812 119.9375 140.152344 120.300781 M 146.039062 119.503906 C 146.039062 119.574219 145.871094 119.972656 145.53125 120.734375 C 145.433594 120.953125 145.316406 121.128906 145.269531 121.128906 C 145.222656 121.128906 145.046875 121.214844 144.882812 121.320312 C 144.632812 121.480469 144.589844 121.492188 144.621094 121.390625 C 144.640625 121.328125 144.707031 121.046875 144.765625 120.769531 L 144.875 120.265625 L 145.410156 119.855469 C 145.96875 119.425781 146.039062 119.386719 146.039062 119.503906 M 139.308594 120.28125 C 139.648438 120.546875 140.121094 121.160156 140.046875 121.230469 C 140 121.28125 139.109375 120.417969 138.980469 120.191406 C 138.828125 119.929688 138.882812 119.945312 139.308594 120.28125 M 144.367188 120.863281 C 144.242188 121.390625 143.878906 122.054688 143.5 122.449219 C 143.28125 122.675781 143.042969 122.941406 142.96875 123.039062 C 142.695312 123.40625 142.9375 122.71875 143.3125 122.058594 C 143.53125 121.679688 144.296875 120.6875 144.375 120.6875 C 144.394531 120.6875 144.386719 120.765625 144.367188 120.863281 M 140.886719 121.425781 C 140.886719 121.679688 140.867188 121.765625 140.816406 121.714844 C 140.753906 121.652344 140.796875 121.066406 140.859375 121.066406 C 140.875 121.066406 140.886719 121.226562 140.886719 121.425781 M 144.886719 122.023438 C 144.371094 122.941406 143.011719 124.222656 142.792969 124 C 142.65625 123.867188 143.699219 122.683594 144.648438 121.894531 C 145.136719 121.488281 145.175781 121.511719 144.886719 122.023438 M 137.851562 122.882812 C 138.65625 123.535156 138.71875 123.609375 138.804688 124.050781 C 138.84375 124.261719 138.929688 124.535156 138.992188 124.664062 C 139.128906 124.941406 139.078125 124.960938 138.761719 124.742188 C 138.632812 124.65625 138.421875 124.554688 138.296875 124.523438 C 138.058594 124.457031 137.761719 123.953125 137.378906 122.984375 C 137.324219 122.84375 137.242188 122.675781 137.199219 122.609375 C 136.945312 122.234375 137.160156 122.324219 137.851562 122.882812 M 140.082031 125.261719 C 140.242188 125.53125 140.394531 125.835938 140.417969 125.9375 L 140.460938 126.128906 L 140.226562 125.90625 C 139.816406 125.519531 139.054688 124.304688 139.066406 124.054688 C 139.070312 123.925781 139.792969 124.785156 140.082031 125.261719 M 138.960938 125.246094 C 139.394531 125.515625 140.195312 126.382812 140.445312 126.847656 L 140.527344 127.003906 L 140.34375 126.886719 C 139.800781 126.539062 138.996094 125.800781 138.648438 125.332031 C 138.304688 124.871094 138.34375 124.859375 138.960938 125.246094 M 146.035156 128.03125 C 146.101562 129.15625 146.085938 129.371094 145.910156 129.492188 C 145.886719 129.507812 145.773438 129.675781 145.660156 129.859375 C 145.414062 130.261719 145.375 130.226562 145.332031 129.519531 C 145.3125 129.238281 145.246094 128.851562 145.1875 128.660156 C 145.058594 128.257812 145.121094 128.058594 145.773438 126.664062 L 145.875 126.449219 L 145.921875 126.664062 C 145.945312 126.785156 145.996094 127.398438 146.035156 128.03125 M 138.738281 129.679688 L 139.636719 130.121094 L 139.796875 130.480469 C 139.886719 130.679688 140.015625 130.921875 140.085938 131.019531 C 140.25 131.253906 140.234375 131.257812 139.722656 131.089844 C 139.480469 131.007812 139.195312 130.941406 139.085938 130.941406 C 138.910156 130.9375 137.804688 129.507812 137.804688 129.28125 C 137.804688 129.21875 137.773438 129.207031 138.738281 129.679688 M 144.929688 130.128906 C 144.953125 130.546875 144.953125 131.179688 144.929688 131.527344 L 144.882812 132.164062 L 144.792969 131.882812 C 144.636719 131.390625 144.671875 129.230469 144.839844 129.332031 C 144.867188 129.347656 144.90625 129.707031 144.929688 130.128906 M 146.011719 130.15625 C 145.988281 130.242188 145.929688 130.5625 145.878906 130.863281 C 145.785156 131.398438 145.535156 132.328125 145.394531 132.636719 C 145.328125 132.789062 145.324219 132.789062 145.277344 132.542969 C 145.195312 132.125 145.398438 131.257812 145.757812 130.464844 C 145.972656 129.996094 146.085938 129.855469 146.011719 130.15625 M 140.574219 130.726562 C 141.34375 131.285156 141.789062 131.753906 142.070312 132.304688 C 142.253906 132.660156 142.195312 132.644531 141.605469 132.164062 C 141.332031 131.941406 141.085938 131.757812 141.058594 131.753906 C 140.996094 131.753906 140.277344 130.847656 140.160156 130.617188 C 140.03125 130.367188 140.101562 130.386719 140.574219 130.726562 M 139.429688 131.34375 C 139.523438 131.394531 139.867188 131.558594 140.195312 131.714844 C 140.703125 131.949219 140.828125 132.039062 141.035156 132.3125 C 141.28125 132.640625 141.605469 132.929688 142.011719 133.183594 C 142.28125 133.351562 142.199219 133.363281 141.679688 133.226562 C 141.0625 133.066406 140.484375 132.6875 139.800781 132 C 139.113281 131.304688 139.007812 131.113281 139.429688 131.34375 M 150.742188 133.105469 C 150.855469 134.019531 150.839844 134.210938 150.625 134.617188 C 150.523438 134.8125 150.4375 135.015625 150.4375 135.0625 C 150.4375 135.171875 150.316406 135.179688 150.285156 135.070312 C 150.273438 135.027344 150.203125 134.722656 150.128906 134.390625 L 149.992188 133.789062 L 150.238281 133.28125 C 150.371094 133.003906 150.496094 132.714844 150.515625 132.640625 C 150.589844 132.363281 150.671875 132.53125 150.742188 133.105469 M 149.945312 136.238281 C 149.90625 136.472656 149.871094 136.753906 149.871094 136.863281 C 149.871094 137.039062 149.859375 137.054688 149.78125 136.972656 C 149.464844 136.652344 149.402344 135.101562 149.6875 134.492188 L 149.832031 134.175781 L 149.921875 134.992188 C 149.996094 135.644531 150 135.898438 149.945312 136.238281 M 150.84375 135.230469 C 150.789062 135.910156 150.550781 136.988281 150.453125 137.019531 C 150.242188 137.089844 150.441406 135.597656 150.730469 134.945312 C 150.878906 134.609375 150.894531 134.648438 150.84375 135.230469 M 141.953125 136.785156 C 142.851562 136.867188 143.367188 136.960938 144.042969 137.171875 C 145.066406 137.488281 144.796875 137.527344 143.054688 137.308594 C 141.710938 137.144531 141.703125 137.140625 141.703125 137.21875 C 141.703125 137.289062 142.191406 137.539062 142.550781 137.648438 C 142.734375 137.707031 142.730469 137.710938 142.425781 137.757812 C 142.25 137.78125 141.964844 137.855469 141.789062 137.914062 L 141.464844 138.027344 L 140.875 137.71875 C 140.214844 137.367188 139.441406 136.863281 139.441406 136.777344 C 139.441406 136.707031 141.167969 136.710938 141.953125 136.785156 M 144.578125 138.023438 C 145.035156 138.042969 145.410156 138.082031 145.410156 138.105469 C 145.410156 138.382812 142.808594 138.496094 142.140625 138.25 L 141.796875 138.121094 L 142.015625 138.078125 C 142.5 137.984375 143.132812 137.929688 143.429688 137.957031 C 143.601562 137.972656 144.121094 138 144.578125 138.023438 " fill-opacity="1" fill-rule="evenodd"/></g></svg>