<svg xmlns="http://www.w3.org/2000/svg" xmlns:xlink="http://www.w3.org/1999/xlink" width="250" zoomAndPan="magnify" viewBox="0 0 187.5 187.499992" height="250" preserveAspectRatio="xMidYMid meet" version="1.0"><defs><clipPath id="e6a79091b6"><path d="M 18.859375 139.269531 L 171.660156 139.269531 L 171.660156 158.34375 L 18.859375 158.34375 Z M 18.859375 139.269531 " clip-rule="nonzero"/></clipPath><clipPath id="8d85dca0d6"><path d="M 78 29.347656 L 96 29.347656 L 96 52 L 78 52 Z M 78 29.347656 " clip-rule="nonzero"/></clipPath></defs><g clip-path="url(#e6a79091b6)"><path fill="#ffffff" d="M 162.183594 158.34375 L 28.332031 158.34375 C 23.105469 158.34375 18.859375 154.089844 18.859375 148.859375 L 18.859375 140.96875 C 18.859375 140.089844 19.570312 139.375 20.449219 139.375 L 106.613281 139.375 C 107.496094 139.375 108.207031 140.089844 108.207031 140.96875 C 108.207031 141.847656 107.496094 142.5625 106.613281 142.5625 L 22.039062 142.5625 L 22.039062 148.859375 C 22.039062 152.328125 24.863281 155.160156 28.332031 155.160156 L 162.179688 155.160156 C 165.648438 155.160156 168.472656 152.335938 168.472656 148.859375 L 168.472656 142.5625 L 122.199219 142.5625 C 121.320312 142.5625 120.609375 141.847656 120.609375 140.96875 C 120.609375 140.089844 121.320312 139.375 122.199219 139.375 L 170.066406 139.375 C 170.945312 139.375 171.660156 140.089844 171.660156 140.96875 L 171.660156 148.859375 C 171.660156 154.089844 167.40625 158.34375 162.183594 158.34375 " fill-opacity="1" fill-rule="evenodd"/></g><path fill="#ffffff" d="M 66.117188 114.566406 C 65.238281 114.566406 64.527344 113.855469 64.527344 112.972656 L 64.527344 68.027344 C 64.527344 63.601562 67.761719 60.238281 73.402344 58.808594 L 100.257812 51.984375 C 102.269531 51.472656 104.351562 51.953125 106.121094 53.328125 C 108.425781 55.121094 109.914062 58.214844 109.914062 61.203125 L 109.914062 85.738281 C 109.914062 86.617188 109.203125 87.332031 108.324219 87.332031 C 107.445312 87.332031 106.730469 86.617188 106.730469 85.738281 L 106.730469 61.203125 C 106.730469 59.1875 105.699219 57.035156 104.171875 55.84375 C 103.476562 55.300781 102.371094 54.734375 101.042969 55.070312 L 74.1875 61.894531 C 71.773438 62.507812 67.714844 64.121094 67.714844 68.027344 L 67.714844 112.980469 C 67.710938 113.855469 66.996094 114.566406 66.117188 114.566406 " fill-opacity="1" fill-rule="evenodd"/><path fill="#ffffff" d="M 82.609375 86.085938 C 79.46875 86.085938 76.804688 84.035156 75.871094 81.203125 C 74.6875 82.09375 73.210938 82.625 71.617188 82.625 C 67.707031 82.625 64.527344 79.441406 64.527344 75.53125 C 64.527344 74.652344 65.238281 73.9375 66.117188 73.9375 C 66.996094 73.9375 67.710938 74.652344 67.710938 75.53125 C 67.710938 77.683594 69.460938 79.441406 71.617188 79.441406 C 73.765625 79.441406 75.519531 77.6875 75.519531 75.53125 C 75.519531 74.652344 76.234375 73.9375 77.109375 73.9375 C 77.992188 73.9375 78.703125 74.652344 78.703125 75.53125 L 78.703125 78.992188 C 78.703125 81.144531 80.453125 82.898438 82.609375 82.898438 C 84.761719 82.898438 86.511719 81.144531 86.511719 78.992188 L 86.511719 56.710938 C 86.511719 55.832031 87.226562 55.121094 88.105469 55.121094 C 88.984375 55.121094 89.695312 55.832031 89.695312 56.710938 L 89.695312 78.992188 C 89.691406 82.902344 86.511719 86.085938 82.609375 86.085938 " fill-opacity="1" fill-rule="evenodd"/><path fill="#ffffff" d="M 87.222656 58.53125 C 86.34375 58.53125 85.628906 57.816406 85.628906 56.9375 L 85.628906 50.113281 C 85.628906 49.234375 86.34375 48.519531 87.222656 48.519531 C 88.101562 48.519531 88.8125 49.234375 88.8125 50.113281 L 88.8125 56.9375 C 88.8125 57.816406 88.101562 58.53125 87.222656 58.53125 " fill-opacity="1" fill-rule="evenodd"/><path fill="#ffffff" d="M 151 142.5625 C 150.121094 142.5625 149.410156 141.847656 149.410156 140.96875 C 149.410156 140.089844 150.121094 139.375 151 139.375 C 157.730469 139.375 163.207031 133.898438 163.207031 127.160156 C 163.207031 120.425781 157.730469 114.945312 151 114.945312 L 106.613281 114.945312 C 99.882812 114.945312 94.410156 120.425781 94.410156 127.160156 C 94.410156 133.898438 99.882812 139.375 106.613281 139.375 C 107.496094 139.375 108.207031 140.089844 108.207031 140.96875 C 108.207031 141.847656 107.496094 142.5625 106.613281 142.5625 C 98.128906 142.5625 91.226562 135.652344 91.226562 127.160156 C 91.226562 118.667969 98.128906 111.757812 106.613281 111.757812 L 151.003906 111.757812 C 159.488281 111.757812 166.394531 118.667969 166.394531 127.160156 C 166.394531 135.652344 159.488281 142.5625 151 142.5625 " fill-opacity="1" fill-rule="evenodd"/><path fill="#ffffff" d="M 138.503906 136.628906 L 115.132812 136.628906 C 110.847656 136.628906 107.363281 133.140625 107.363281 128.851562 C 107.363281 124.5625 110.847656 121.074219 115.132812 121.074219 L 128.199219 121.074219 C 129.078125 121.074219 129.789062 121.789062 129.789062 122.667969 C 129.789062 123.546875 129.078125 124.261719 128.199219 124.261719 L 115.132812 124.261719 C 112.605469 124.261719 110.542969 126.324219 110.542969 128.851562 C 110.542969 131.382812 112.605469 133.445312 115.132812 133.445312 L 138.503906 133.445312 C 143.601562 133.445312 147.746094 129.296875 147.746094 124.195312 C 147.746094 119.09375 143.601562 114.945312 138.503906 114.945312 C 137.625 114.945312 136.910156 114.230469 136.910156 113.351562 C 136.910156 112.472656 137.625 111.757812 138.503906 111.757812 C 145.355469 111.757812 150.929688 117.335938 150.929688 124.195312 C 150.929688 131.050781 145.355469 136.628906 138.503906 136.628906 " fill-opacity="1" fill-rule="evenodd"/><path fill="#ffffff" d="M 151 114.945312 C 150.121094 114.945312 149.410156 114.230469 149.410156 113.351562 C 149.410156 112.472656 150.121094 111.757812 151 111.757812 C 157.730469 111.757812 163.207031 106.28125 163.207031 99.542969 C 163.207031 92.808594 157.730469 87.328125 151 87.328125 L 106.613281 87.328125 C 99.882812 87.328125 94.410156 92.808594 94.410156 99.542969 C 94.410156 106.28125 99.882812 111.757812 106.613281 111.757812 C 107.496094 111.757812 108.207031 112.472656 108.207031 113.351562 C 108.207031 114.230469 107.496094 114.945312 106.613281 114.945312 C 98.128906 114.945312 91.226562 108.035156 91.226562 99.542969 C 91.226562 91.054688 98.128906 84.144531 106.613281 84.144531 L 151.003906 84.144531 C 159.488281 84.144531 166.394531 91.054688 166.394531 99.542969 C 166.394531 108.035156 159.488281 114.945312 151 114.945312 " fill-opacity="1" fill-rule="evenodd"/><path fill="#ffffff" d="M 138.503906 109.011719 L 115.132812 109.011719 C 110.847656 109.011719 107.363281 105.523438 107.363281 101.234375 C 107.363281 96.945312 110.847656 93.457031 115.132812 93.457031 L 128.199219 93.457031 C 129.078125 93.457031 129.789062 94.171875 129.789062 95.050781 C 129.789062 95.929688 129.078125 96.644531 128.199219 96.644531 L 115.132812 96.644531 C 112.605469 96.644531 110.542969 98.703125 110.542969 101.234375 C 110.542969 103.769531 112.605469 105.828125 115.132812 105.828125 L 138.503906 105.828125 C 143.601562 105.828125 147.746094 101.679688 147.746094 96.578125 C 147.746094 91.476562 143.601562 87.328125 138.503906 87.328125 C 137.625 87.328125 136.910156 86.617188 136.910156 85.734375 C 136.910156 84.855469 137.625 84.144531 138.503906 84.144531 C 145.355469 84.144531 150.929688 89.722656 150.929688 96.578125 C 150.929688 103.433594 145.355469 109.011719 138.503906 109.011719 " fill-opacity="1" fill-rule="evenodd"/><path fill="#ffffff" d="M 44.082031 117.117188 C 43.898438 117.117188 43.707031 117.085938 43.523438 117.015625 C 42.699219 116.703125 42.285156 115.789062 42.597656 114.960938 C 43.480469 112.609375 44.726562 110.417969 46.304688 108.453125 C 48.636719 105.550781 51.644531 103.207031 55.019531 101.671875 C 55.4375 101.480469 55.917969 101.480469 56.335938 101.671875 C 62.03125 104.265625 66.558594 109.109375 68.757812 114.960938 C 69.070312 115.789062 68.652344 116.703125 67.832031 117.015625 C 67.011719 117.328125 66.089844 116.90625 65.777344 116.085938 C 63.960938 111.242188 60.304688 107.195312 55.679688 104.886719 C 53.023438 106.214844 50.65625 108.121094 48.789062 110.449219 C 47.421875 112.15625 46.34375 114.046875 45.578125 116.085938 C 45.335938 116.722656 44.730469 117.117188 44.082031 117.117188 " fill-opacity="1" fill-rule="evenodd"/><path fill="#ffffff" d="M 35.222656 142.5625 C 34.90625 142.5625 34.59375 142.46875 34.3125 142.277344 C 33.167969 141.476562 32.078125 140.5625 31.085938 139.570312 C 24.511719 132.992188 22.375 123.117188 25.636719 114.402344 C 25.800781 113.972656 26.140625 113.628906 26.570312 113.46875 C 35.277344 110.203125 45.148438 112.339844 51.722656 118.917969 C 54.144531 121.339844 55.976562 124.1875 57.167969 127.371094 C 57.476562 128.195312 57.0625 129.113281 56.238281 129.421875 C 55.414062 129.726562 54.496094 129.3125 54.1875 128.488281 C 53.15625 125.730469 51.570312 123.269531 49.472656 121.171875 C 43.949219 115.644531 35.742188 113.738281 28.375 116.207031 C 25.910156 123.582031 27.816406 131.792969 33.335938 137.320312 C 34.199219 138.179688 35.140625 138.96875 36.132812 139.667969 C 36.855469 140.167969 37.03125 141.164062 36.527344 141.886719 C 36.214844 142.324219 35.722656 142.5625 35.222656 142.5625 " fill-opacity="1" fill-rule="evenodd"/><path fill="#ffffff" d="M 54.890625 142.5625 C 54.171875 142.5625 53.523438 142.074219 53.34375 141.34375 C 51.375 133.207031 53.726562 124.824219 59.632812 118.914062 C 66.207031 112.335938 76.078125 110.199219 84.785156 113.464844 C 85.214844 113.625 85.554688 113.964844 85.71875 114.398438 C 88.980469 123.109375 86.84375 132.988281 80.269531 139.566406 C 79.273438 140.5625 78.1875 141.46875 77.042969 142.269531 C 76.320312 142.773438 75.328125 142.597656 74.824219 141.875 C 74.316406 141.15625 74.496094 140.164062 75.214844 139.660156 C 76.210938 138.960938 77.152344 138.171875 78.015625 137.3125 C 83.535156 131.785156 85.441406 123.574219 82.976562 116.195312 C 75.605469 113.730469 67.398438 115.636719 61.882812 121.160156 C 56.769531 126.28125 54.734375 133.539062 56.4375 140.585938 C 56.644531 141.441406 56.117188 142.304688 55.261719 142.511719 C 55.140625 142.542969 55.015625 142.5625 54.890625 142.5625 " fill-opacity="1" fill-rule="evenodd"/><g clip-path="url(#8d85dca0d6)"><path fill="#ffffff" d="M 87.222656 51.707031 C 82.441406 51.707031 78.554688 47.816406 78.554688 43.03125 C 78.554688 39.5625 81.820312 35.347656 84.449219 31.957031 C 85.003906 31.246094 85.527344 30.570312 85.933594 30.007812 C 86.230469 29.59375 86.710938 29.347656 87.222656 29.347656 C 87.730469 29.347656 88.210938 29.59375 88.511719 30.007812 C 88.917969 30.570312 89.4375 31.246094 89.992188 31.960938 C 92.617188 35.347656 95.886719 39.566406 95.886719 43.035156 C 95.882812 47.816406 92 51.707031 87.222656 51.707031 Z M 87.222656 33.574219 C 87.132812 33.6875 87.050781 33.796875 86.964844 33.90625 C 84.882812 36.589844 81.738281 40.648438 81.738281 43.027344 C 81.738281 46.050781 84.195312 48.515625 87.222656 48.515625 C 90.246094 48.515625 92.703125 46.058594 92.703125 43.027344 C 92.703125 40.648438 89.558594 36.589844 87.480469 33.90625 C 87.390625 33.800781 87.304688 33.6875 87.222656 33.574219 " fill-opacity="1" fill-rule="evenodd"/></g><path fill="#ffffff" d="M 72.738281 105.835938 C 71.859375 105.835938 71.144531 105.121094 71.144531 104.242188 L 71.144531 90.367188 C 71.144531 89.488281 71.859375 88.777344 72.738281 88.777344 C 73.617188 88.777344 74.328125 89.488281 74.328125 90.367188 L 74.328125 104.242188 C 74.328125 105.121094 73.617188 105.835938 72.738281 105.835938 " fill-opacity="1" fill-rule="evenodd"/></svg>