<svg xmlns="http://www.w3.org/2000/svg" xmlns:xlink="http://www.w3.org/1999/xlink" width="250" zoomAndPan="magnify" viewBox="0 0 187.5 187.499992" height="250" preserveAspectRatio="xMidYMid meet" version="1.0"><defs><clipPath id="2fd65498fd"><path d="M 16.578125 45.183594 L 170.929688 45.183594 L 170.929688 142.679688 L 16.578125 142.679688 Z M 16.578125 45.183594 " clip-rule="nonzero"/></clipPath></defs><g clip-path="url(#2fd65498fd)"><path fill="#ffffff" d="M 158.527344 136.371094 C 157.890625 136.296875 155.125 135.566406 146.832031 129.027344 C 140.28125 123.859375 132.316406 116.640625 124.398438 108.691406 C 116.484375 100.75 109.289062 92.75 104.140625 86.175781 C 97.53125 77.734375 96.878906 74.996094 96.824219 74.410156 L 103.792969 66.851562 C 103.984375 67.300781 104.203125 67.738281 104.421875 68.160156 C 105.570312 70.367188 107.476562 73.21875 110.082031 76.632812 C 115.371094 83.558594 123.019531 92.128906 131.617188 100.757812 C 140.214844 109.390625 148.753906 117.066406 155.652344 122.375 C 159.054688 124.992188 161.894531 126.902344 164.09375 128.058594 C 164.574219 128.308594 165.078125 128.558594 165.589844 128.773438 Z M 96.269531 136.90625 C 87.152344 138.523438 76.03125 139.410156 64.945312 139.410156 C 53.859375 139.410156 42.734375 138.523438 33.621094 136.90625 C 23.832031 135.167969 20.453125 133.339844 19.839844 132.667969 L 20.132812 104.9375 C 20.621094 105.171875 21.125 105.382812 21.609375 105.570312 C 24.097656 106.546875 27.660156 107.492188 31.914062 108.300781 C 41.46875 110.121094 53.3125 111.125 65.265625 111.125 C 77.214844 111.125 89.0625 110.121094 98.617188 108.300781 C 102.867188 107.492188 106.429688 106.546875 108.917969 105.570312 C 109.378906 105.390625 109.851562 105.195312 110.3125 104.976562 L 110.054688 132.664062 C 109.449219 133.332031 106.078125 135.164062 96.269531 136.90625 Z M 22.789062 100.46875 C 23.667969 101.472656 25.160156 102.113281 26.386719 102.546875 C 28.5625 103.320312 31.636719 104.011719 35.519531 104.597656 C 43.363281 105.78125 53.699219 106.433594 64.625 106.433594 C 75.769531 106.433594 86.261719 105.78125 94.164062 104.597656 C 98.070312 104.011719 101.160156 103.320312 103.34375 102.546875 C 104.671875 102.078125 106.308594 101.371094 107.140625 100.21875 C 109.027344 100.6875 109.839844 101.066406 110.183594 101.285156 C 109.210938 102.0625 105.640625 103.746094 96.589844 105.351562 C 87.476562 106.96875 76.351562 107.855469 65.265625 107.855469 C 54.179688 107.855469 43.054688 106.96875 33.941406 105.351562 C 24.984375 103.761719 21.394531 102.097656 20.378906 101.308594 C 20.710938 101.125 21.394531 100.839844 22.789062 100.46875 Z M 28.121094 75.109375 C 30.429688 70.320312 34.699219 67.417969 40.808594 66.480469 C 43.871094 66.011719 46.640625 65.722656 49.085938 65.46875 C 55.03125 64.847656 59.722656 64.355469 63.746094 61.765625 C 68.363281 58.789062 69.507812 54.703125 69.652344 51.796875 C 69.699219 50.875 69.648438 50.011719 69.550781 49.253906 C 71.039062 49.832031 73.003906 50.738281 74.984375 52.074219 C 80.28125 55.648438 83.113281 60.449219 83.402344 66.34375 C 83.769531 73.832031 81.53125 79.410156 76.753906 82.917969 C 73.128906 85.578125 69.300781 86.042969 69.265625 86.046875 C 69.191406 86.054688 69.121094 86.070312 69.050781 86.085938 C 67.699219 86.105469 66.332031 86.113281 64.945312 86.113281 C 54.691406 86.113281 44.882812 85.546875 37.316406 84.515625 C 31.050781 83.664062 27.949219 82.722656 26.4375 82.070312 C 26.4375 82.058594 26.4375 82.050781 26.4375 82.039062 C 26.4375 82.007812 26.382812 78.707031 28.121094 75.109375 Z M 104.429688 97.984375 C 104.402344 98.125 104.394531 98.261719 104.40625 98.398438 C 103.96875 98.785156 101.722656 100.28125 92.25 101.566406 C 84.6875 102.597656 74.875 103.164062 64.625 103.164062 C 54.582031 103.164062 44.921875 102.597656 37.421875 101.566406 C 27.789062 100.246094 25.664062 98.714844 25.300781 98.375 L 25.148438 85.078125 C 25.515625 85.238281 25.878906 85.375 26.222656 85.496094 C 28.40625 86.269531 31.496094 86.960938 35.402344 87.546875 C 43.308594 88.730469 53.796875 89.382812 64.945312 89.382812 C 80.054688 89.382812 92.828125 88.339844 100.28125 86.507812 C 100.375 86.628906 100.46875 86.753906 100.5625 86.878906 C 101.738281 88.421875 103.035156 90.042969 104.429688 91.730469 Z M 107.6875 95.574219 C 108.210938 96.179688 108.746094 96.789062 109.292969 97.40625 C 108.78125 97.253906 108.242188 97.113281 107.6875 96.984375 Z M 93.5625 74.296875 C 93.5625 75.609375 94.222656 77.105469 94.898438 78.40625 C 95.664062 79.871094 96.765625 81.625 98.179688 83.636719 C 93.351562 84.664062 86.433594 85.414062 78.328125 85.804688 C 78.398438 85.753906 78.472656 85.703125 78.546875 85.652344 C 81.835938 83.277344 85.570312 78.96875 86.484375 71.445312 C 89.460938 71.910156 92.886719 72.976562 93.5625 74.296875 Z M 117.65625 71.917969 C 124.207031 77.085938 132.175781 84.308594 140.09375 92.253906 C 148.007812 100.199219 155.199219 108.195312 160.347656 114.773438 C 165.804688 121.738281 167.199219 124.820312 167.550781 126.011719 C 166.363281 125.660156 163.292969 124.257812 156.355469 118.78125 C 149.804688 113.613281 141.835938 106.394531 133.921875 98.449219 C 126.003906 90.503906 118.808594 82.503906 113.660156 75.929688 C 108.207031 68.960938 106.8125 65.882812 106.457031 64.6875 C 107.648438 65.042969 110.71875 66.445312 117.65625 71.917969 Z M 169.589844 122.542969 C 168.441406 120.335938 166.535156 117.484375 163.929688 114.070312 C 158.640625 107.140625 150.992188 98.574219 142.394531 89.941406 C 133.792969 81.308594 125.257812 73.632812 118.359375 68.328125 C 114.957031 65.710938 112.117188 63.796875 109.917969 62.640625 C 108.109375 61.691406 105.914062 60.777344 104.386719 61.652344 C 104.15625 61.738281 103.941406 61.875 103.761719 62.070312 L 95.246094 71.308594 C 94.109375 70.308594 92.402344 69.5 90.140625 68.886719 C 88.851562 68.539062 87.609375 68.316406 86.695312 68.179688 C 86.703125 67.535156 86.6875 66.871094 86.65625 66.183594 C 86.320312 59.300781 82.910156 53.480469 76.800781 49.359375 C 72.273438 46.304688 67.875 45.265625 67.691406 45.222656 C 67.105469 45.089844 66.492188 45.292969 66.097656 45.746094 C 65.703125 46.203125 65.59375 46.84375 65.808594 47.410156 C 65.921875 47.710938 68.546875 54.785156 61.984375 59.011719 C 58.617188 61.183594 54.476562 61.617188 48.75 62.214844 C 46.269531 62.476562 43.457031 62.769531 40.316406 63.25 C 31.308594 64.632812 27.117188 69.6875 25.191406 73.683594 C 24.042969 76.058594 23.550781 78.328125 23.339844 79.914062 C 22.617188 79.988281 22.039062 80.535156 21.90625 81.242188 C 21.871094 81.382812 21.851562 81.53125 21.851562 81.683594 L 22.03125 97.285156 C 19.128906 98.035156 16.902344 98.996094 16.902344 101.328125 C 16.902344 101.417969 16.90625 101.511719 16.917969 101.601562 C 16.914062 101.632812 16.910156 101.664062 16.910156 101.695312 L 16.578125 132.863281 C 16.578125 132.871094 16.578125 132.875 16.578125 132.882812 C 16.578125 135.007812 19.097656 136.269531 21.289062 137.125 C 23.777344 138.101562 27.339844 139.042969 31.59375 139.855469 C 41.148438 141.675781 52.992188 142.679688 64.945312 142.679688 C 76.894531 142.679688 88.738281 141.675781 98.292969 139.855469 C 102.546875 139.042969 106.109375 138.101562 108.597656 137.125 C 110.792969 136.269531 113.308594 135.007812 113.308594 132.894531 L 113.597656 102.160156 C 116.277344 105.058594 119.128906 108.027344 122.097656 111.003906 C 130.695312 119.636719 139.230469 127.3125 146.132812 132.621094 C 149.535156 135.238281 152.375 137.148438 154.574219 138.304688 C 155.867188 138.984375 157.363281 139.648438 158.667969 139.648438 C 159.414062 139.648438 160.09375 139.433594 160.644531 138.882812 C 160.660156 138.867188 160.671875 138.855469 160.683594 138.839844 L 170.253906 128.546875 C 170.300781 128.496094 170.34375 128.445312 170.382812 128.390625 C 171.570312 126.851562 170.597656 124.472656 169.589844 122.542969 " fill-opacity="1" fill-rule="nonzero"/></g><path fill="#ffffff" d="M 29.09375 80.617188 C 29.992188 80.617188 30.71875 79.886719 30.71875 78.984375 L 30.71875 77.960938 C 30.71875 77.058594 29.992188 76.324219 29.09375 76.324219 C 28.191406 76.324219 27.464844 77.058594 27.464844 77.960938 L 27.464844 78.984375 C 27.464844 79.886719 28.191406 80.617188 29.09375 80.617188 " fill-opacity="1" fill-rule="nonzero"/><path fill="#ffffff" d="M 34.183594 74.230469 C 34.449219 74.230469 34.714844 74.164062 34.964844 74.027344 L 36.363281 73.261719 C 37.152344 72.832031 37.445312 71.835938 37.011719 71.046875 C 36.582031 70.253906 35.59375 69.960938 34.804688 70.394531 L 33.402344 71.160156 C 32.613281 71.589844 32.324219 72.585938 32.753906 73.378906 C 33.050781 73.921875 33.609375 74.230469 34.183594 74.230469 " fill-opacity="1" fill-rule="nonzero"/><path fill="#ffffff" d="M 34.679688 77.113281 C 33.933594 77.613281 33.730469 78.628906 34.230469 79.378906 L 35.246094 80.910156 C 35.5625 81.382812 36.078125 81.640625 36.605469 81.640625 C 36.914062 81.640625 37.226562 81.550781 37.503906 81.363281 C 38.253906 80.863281 38.457031 79.847656 37.957031 79.097656 L 36.9375 77.566406 C 36.441406 76.8125 35.429688 76.609375 34.679688 77.113281 " fill-opacity="1" fill-rule="nonzero"/><path fill="#ffffff" d="M 76.316406 60.429688 C 76.578125 60.429688 76.847656 60.367188 77.09375 60.230469 L 78.496094 59.464844 C 79.285156 59.03125 79.574219 58.039062 79.144531 57.246094 C 78.714844 56.453125 77.726562 56.160156 76.933594 56.59375 L 75.535156 57.359375 C 74.746094 57.792969 74.453125 58.785156 74.886719 59.578125 C 75.179688 60.121094 75.738281 60.429688 76.316406 60.429688 " fill-opacity="1" fill-rule="nonzero"/><path fill="#ffffff" d="M 78.085938 63.3125 C 77.335938 63.8125 77.132812 64.828125 77.632812 65.578125 L 78.652344 67.113281 C 78.964844 67.585938 79.480469 67.839844 80.007812 67.839844 C 80.316406 67.839844 80.632812 67.75 80.910156 67.566406 C 81.65625 67.066406 81.859375 66.050781 81.359375 65.300781 L 80.34375 63.765625 C 79.84375 63.015625 78.832031 62.8125 78.085938 63.3125 " fill-opacity="1" fill-rule="nonzero"/><path fill="#ffffff" d="M 41.425781 76.671875 C 41.726562 76.917969 42.09375 77.039062 42.457031 77.039062 C 42.929688 77.039062 43.394531 76.835938 43.71875 76.441406 L 44.863281 75.035156 C 45.433594 74.335938 45.328125 73.304688 44.632812 72.734375 C 43.9375 72.164062 42.910156 72.265625 42.34375 72.964844 L 41.195312 74.371094 C 40.628906 75.070312 40.730469 76.097656 41.425781 76.671875 " fill-opacity="1" fill-rule="nonzero"/><path fill="#ffffff" d="M 58.160156 70.5625 C 58.472656 71.035156 58.988281 71.289062 59.515625 71.289062 C 59.824219 71.289062 60.140625 71.203125 60.417969 71.015625 C 61.164062 70.515625 61.367188 69.5 60.867188 68.75 L 59.851562 67.214844 C 59.351562 66.464844 58.339844 66.261719 57.589844 66.761719 C 56.84375 67.261719 56.640625 68.277344 57.140625 69.027344 L 58.160156 70.5625 " fill-opacity="1" fill-rule="nonzero"/><path fill="#ffffff" d="M 70.757812 64.046875 C 71.074219 64.519531 71.589844 64.773438 72.117188 64.773438 C 72.425781 64.773438 72.738281 64.683594 73.019531 64.5 C 73.765625 64 73.96875 62.984375 73.46875 62.234375 L 72.449219 60.699219 C 71.953125 59.949219 70.941406 59.746094 70.191406 60.246094 C 69.445312 60.746094 69.242188 61.761719 69.742188 62.511719 L 70.757812 64.046875 " fill-opacity="1" fill-rule="nonzero"/><path fill="#ffffff" d="M 63.574219 67.34375 C 63.875 67.59375 64.242188 67.714844 64.605469 67.714844 C 65.074219 67.714844 65.542969 67.507812 65.863281 67.113281 L 67.011719 65.707031 C 67.578125 65.007812 67.476562 63.980469 66.78125 63.40625 C 66.085938 62.835938 65.058594 62.9375 64.488281 63.636719 L 63.34375 65.042969 C 62.773438 65.742188 62.878906 66.773438 63.574219 67.34375 " fill-opacity="1" fill-rule="nonzero"/><path fill="#ffffff" d="M 44.113281 70.011719 L 45.640625 70.011719 C 46.539062 70.011719 47.269531 69.28125 47.269531 68.378906 C 47.269531 67.476562 46.539062 66.742188 45.640625 66.742188 L 44.113281 66.742188 C 43.210938 66.742188 42.484375 67.476562 42.484375 68.378906 C 42.484375 69.28125 43.210938 70.011719 44.113281 70.011719 " fill-opacity="1" fill-rule="nonzero"/><path fill="#ffffff" d="M 44.875 79.394531 C 43.976562 79.394531 43.246094 80.125 43.246094 81.027344 L 43.246094 82.175781 C 43.246094 83.078125 43.976562 83.8125 44.875 83.8125 C 45.773438 83.8125 46.503906 83.078125 46.503906 82.175781 L 46.503906 81.027344 C 46.503906 80.125 45.773438 79.394531 44.875 79.394531 " fill-opacity="1" fill-rule="nonzero"/><path fill="#ffffff" d="M 74.335938 67.773438 L 73.335938 67.574219 C 72.453125 67.402344 71.597656 67.976562 71.425781 68.863281 C 71.25 69.75 71.824219 70.609375 72.707031 70.78125 L 73.707031 70.980469 C 73.8125 71 73.917969 71.011719 74.023438 71.011719 C 74.785156 71.011719 75.464844 70.46875 75.617188 69.691406 C 75.792969 68.804688 75.21875 67.945312 74.335938 67.773438 " fill-opacity="1" fill-rule="nonzero"/><path fill="#ffffff" d="M 88.492188 76.914062 L 89.492188 77.113281 C 89.597656 77.132812 89.703125 77.144531 89.804688 77.144531 C 90.570312 77.144531 91.25 76.601562 91.402344 75.824219 C 91.574219 74.9375 91 74.078125 90.117188 73.90625 L 89.121094 73.707031 C 88.238281 73.535156 87.382812 74.109375 87.207031 74.996094 C 87.035156 75.882812 87.609375 76.742188 88.492188 76.914062 " fill-opacity="1" fill-rule="nonzero"/><path fill="#ffffff" d="M 65.542969 72.113281 L 64.523438 73.347656 C 63.949219 74.039062 64.042969 75.070312 64.734375 75.648438 C 65.039062 75.902344 65.410156 76.027344 65.773438 76.027344 C 66.242188 76.027344 66.707031 75.824219 67.027344 75.433594 L 68.046875 74.203125 C 68.621094 73.507812 68.527344 72.480469 67.835938 71.902344 C 67.144531 71.324219 66.117188 71.421875 65.542969 72.113281 " fill-opacity="1" fill-rule="nonzero"/><path fill="#ffffff" d="M 73.800781 74.765625 C 73.160156 74.132812 72.132812 74.132812 71.496094 74.773438 C 70.863281 75.414062 70.867188 76.449219 71.503906 77.085938 L 72.808594 78.382812 C 73.125 78.699219 73.539062 78.859375 73.957031 78.859375 C 74.375 78.859375 74.792969 78.699219 75.109375 78.375 C 75.746094 77.734375 75.742188 76.703125 75.101562 76.066406 L 73.800781 74.765625 " fill-opacity="1" fill-rule="nonzero"/><path fill="#ffffff" d="M 71.789062 55.003906 C 72.105469 55.320312 72.523438 55.476562 72.9375 55.476562 C 73.355469 55.476562 73.773438 55.316406 74.09375 54.996094 C 74.726562 54.355469 74.722656 53.320312 74.085938 52.683594 L 72.78125 51.386719 C 72.144531 50.75 71.113281 50.753906 70.480469 51.394531 C 69.84375 52.035156 69.847656 53.070312 70.488281 53.707031 L 71.789062 55.003906 " fill-opacity="1" fill-rule="nonzero"/><path fill="#ffffff" d="M 67.082031 83.863281 C 67.375 84.414062 67.9375 84.726562 68.519531 84.726562 C 68.777344 84.726562 69.042969 84.664062 69.285156 84.53125 L 70.882812 83.675781 C 71.675781 83.25 71.972656 82.257812 71.546875 81.460938 C 71.125 80.667969 70.136719 80.367188 69.34375 80.792969 L 67.75 81.652344 C 66.957031 82.078125 66.65625 83.066406 67.082031 83.863281 " fill-opacity="1" fill-rule="nonzero"/><path fill="#ffffff" d="M 59.164062 81.8125 L 58.867188 83.316406 C 58.695312 84.203125 59.269531 85.0625 60.152344 85.234375 C 60.257812 85.253906 60.363281 85.265625 60.46875 85.265625 C 61.230469 85.265625 61.910156 84.726562 62.0625 83.945312 L 62.359375 82.441406 C 62.53125 81.554688 61.957031 80.695312 61.074219 80.523438 C 60.191406 80.347656 59.335938 80.925781 59.164062 81.8125 " fill-opacity="1" fill-rule="nonzero"/><path fill="#ffffff" d="M 80.78125 71.796875 L 79.65625 71.574219 C 78.773438 71.398438 77.917969 71.976562 77.746094 72.863281 C 77.570312 73.75 78.144531 74.609375 79.027344 74.78125 L 80.152344 75.003906 C 80.257812 75.023438 80.363281 75.035156 80.46875 75.035156 C 81.230469 75.035156 81.914062 74.492188 82.066406 73.714844 C 82.238281 72.828125 81.664062 71.96875 80.78125 71.796875 " fill-opacity="1" fill-rule="nonzero"/><path fill="#ffffff" d="M 90.984375 80.65625 C 90.808594 81.542969 91.382812 82.402344 92.265625 82.574219 L 93.390625 82.796875 C 93.496094 82.816406 93.601562 82.828125 93.707031 82.828125 C 94.46875 82.828125 95.148438 82.289062 95.300781 81.507812 C 95.476562 80.621094 94.902344 79.761719 94.019531 79.589844 L 92.894531 79.367188 C 92.011719 79.191406 91.15625 79.769531 90.984375 80.65625 " fill-opacity="1" fill-rule="nonzero"/><path fill="#ffffff" d="M 50.6875 73.339844 L 51.6875 73.535156 C 51.792969 73.554688 51.898438 73.566406 52.003906 73.566406 C 52.765625 73.566406 53.445312 73.023438 53.597656 72.246094 C 53.773438 71.359375 53.195312 70.5 52.316406 70.328125 L 51.316406 70.128906 C 50.433594 69.957031 49.578125 70.53125 49.402344 71.417969 C 49.230469 72.304688 49.804688 73.164062 50.6875 73.339844 " fill-opacity="1" fill-rule="nonzero"/><path fill="#ffffff" d="M 57.007812 77.210938 L 58.132812 77.429688 C 58.238281 77.453125 58.34375 77.460938 58.449219 77.460938 C 59.210938 77.460938 59.890625 76.921875 60.042969 76.140625 C 60.21875 75.253906 59.644531 74.398438 58.761719 74.222656 L 57.636719 74 C 56.753906 73.828125 55.898438 74.40625 55.722656 75.289062 C 55.550781 76.175781 56.125 77.035156 57.007812 77.210938 " fill-opacity="1" fill-rule="nonzero"/><path fill="#ffffff" d="M 53.175781 79.597656 C 52.390625 79.160156 51.398438 79.445312 50.960938 80.234375 L 50.324219 81.382812 C 49.890625 82.171875 50.171875 83.167969 50.957031 83.605469 C 51.207031 83.746094 51.480469 83.8125 51.746094 83.8125 C 52.320312 83.8125 52.875 83.507812 53.171875 82.972656 L 53.808594 81.820312 C 54.246094 81.03125 53.960938 80.035156 53.175781 79.597656 " fill-opacity="1" fill-rule="nonzero"/><path fill="#ffffff" d="M 85.324219 83.605469 C 85.574219 83.746094 85.847656 83.8125 86.113281 83.8125 C 86.6875 83.8125 87.242188 83.507812 87.539062 82.972656 L 88.175781 81.820312 C 88.613281 81.03125 88.328125 80.035156 87.542969 79.597656 C 86.757812 79.160156 85.765625 79.445312 85.328125 80.234375 L 84.691406 81.382812 C 84.253906 82.171875 84.539062 83.167969 85.324219 83.605469 " fill-opacity="1" fill-rule="nonzero"/></svg>