<svg width="20" height="20" viewBox="0 0 20 20" fill="none" xmlns="http://www.w3.org/2000/svg">
<g clip-path="url(#clip0_1358_2)">
<path d="M1.31134e-07 18.5C5.87108e-08 19.3284 0.671573 20 1.5 20L18.5 20C19.3284 20 20 19.3284 20 18.5V18.5C20 17.6716 19.3284 17 18.5 17L1.5 17C0.671573 17 2.03558e-07 17.6716 1.31134e-07 18.5V18.5Z" fill="white"/>
<path d="M1.31134e-07 2.49988C5.87108e-08 3.3283 0.671573 3.99988 1.5 3.99988L18.5 3.99988C19.3284 3.99988 20 3.32831 20 2.49988V2.49988C20 1.67145 19.3284 0.999878 18.5 0.999878L1.5 0.999876C0.671573 0.999876 2.03558e-07 1.67145 1.31134e-07 2.49988V2.49988Z" fill="white"/>
<path d="M7 10.4999C7 11.3283 7.67157 11.9999 8.5 11.9999L18.5 11.9999C19.3284 11.9999 20 11.3283 20 10.4999V10.4999C20 9.67145 19.3284 8.99988 18.5 8.99988L8.5 8.99988C7.67157 8.99988 7 9.67145 7 10.4999V10.4999Z" fill="white"/>
</g>
<defs>
<clipPath id="clip0_1358_2">
<rect width="20" height="20" fill="white" transform="translate(20 20) rotate(-180)"/>
</clipPath>
</defs>
</svg>
